<?xml version="1.0" encoding="UTF-8"?>
<svg version="1.1" xmlns="http://www.w3.org/2000/svg" width="512" height="512">
<path d="M0 0 C2.875 0.6875 2.875 0.6875 3.875 1.6875 C4.3125 4.5 4.3125 4.5 3.875 7.6875 C2.98683594 8.19152344 2.09867188 8.69554688 1.18359375 9.21484375 C-3.64856045 12.20426972 -5.28998568 17.42323791 -7.5 22.4375 C-7.94988281 23.42105469 -8.39976562 24.40460938 -8.86328125 25.41796875 C-9.96583982 27.83421412 -11.0475169 30.2599689 -12.125 32.6875 C-8.825 34.6675 -5.525 36.6475 -2.125 38.6875 C-3.06889853 43.40699266 -4.38936339 47.23521478 -6.125 51.6875 C-5.63902344 52.06777344 -5.15304688 52.44804687 -4.65234375 52.83984375 C-2.0137578 56.03179044 -2.66828839 59.4943434 -2.76953125 63.4765625 C-3.42157049 69.36641141 -5.27613307 74.62111931 -9.25 79.0625 C-11.91711105 82.79645547 -12.13804097 86.55269841 -12.73046875 91.04296875 C-13.125 93.6875 -13.125 93.6875 -14.125 95.6875 C-13.30901549 98.16809292 -12.42936614 100.52835195 -11.4375 102.9375 C-11.18033203 103.59363281 -10.92316406 104.24976563 -10.65820312 104.92578125 C-7.67606063 112.29687547 -4.65281771 117.10540365 2.69921875 120.44921875 C17.39244101 126.27755773 17.39244101 126.27755773 32.875 125.6875 C32.27171875 124.98625 31.6684375 124.285 31.046875 123.5625 C20.99717465 111.63253313 16.78213031 101.50266236 17.6796875 85.63085938 C18.50594384 77.40960883 22.53084916 70.76922129 27.875 64.6875 C28.37644531 64.08164063 28.87789062 63.47578125 29.39453125 62.8515625 C36.64881994 54.76770795 47.36830501 50.18916248 58.08984375 49.47265625 C72.9947131 49.06807239 84.69820498 52.98254279 95.54296875 63.2109375 C103.19560532 71.33785808 106.56943346 80.87240422 107.00390625 91.984375 C106.59805896 102.26583974 103.03410728 111.47535696 96.875 119.6875 C97.82375 119.77 98.7725 119.8525 99.75 119.9375 C110.66216726 121.62472265 117.11035331 127.14672021 124.875 134.6875 C126.13655943 135.80225074 127.4065898 136.90753927 128.6875 138 C150.25188869 156.85774731 165.14328947 177.77112975 176.70703125 204 C178.23480053 206.20734558 179.32626281 206.05386218 181.875 206.6875 C183.7421875 208.5859375 183.7421875 208.5859375 185.75 211.0625 C189.53174634 215.47978108 193.50109508 218.76969626 198.1875 222.1875 C204.10686233 226.60874251 207.22303766 230.29587288 208.875 237.6875 C209.10316406 238.42613281 209.33132813 239.16476562 209.56640625 239.92578125 C211.21344889 245.75776243 211.70249037 251.85044119 209.875 257.6875 C207.61102451 260.42779242 204.94736423 261.95552997 201.875 263.6875 C200.59882812 264.52474609 200.59882812 264.52474609 199.296875 265.37890625 C191.70151062 270.27950812 191.70151062 270.27950812 186.875 269.6875 C185.375 267.8125 185.375 267.8125 183.875 264.6875 C183.0021692 262.93641708 182.12700401 261.18649656 181.25 259.4375 C180.82460938 258.56609375 180.39921875 257.6946875 179.9609375 256.796875 C179.04671535 254.75753895 179.04671535 254.75753895 177.875 253.6875 C177.97039062 254.60273438 178.06578125 255.51796875 178.1640625 256.4609375 C178.27492188 257.64945312 178.38578125 258.83796875 178.5 260.0625 C178.67402344 261.83753906 178.67402344 261.83753906 178.8515625 263.6484375 C178.85929687 264.65132813 178.86703125 265.65421875 178.875 266.6875 C176.875 268.6875 176.875 268.6875 174.5 269.1875 C171.875 268.6875 171.875 268.6875 169.75 266.1875 C166.04101235 259.26405639 164.55574711 253.7108791 164.5625 245.875 C164.39430148 238.81428707 163.26518676 233.94304322 159.25 227.94921875 C157.875 225.6875 157.875 225.6875 157.5625 223.39453125 C155.6433738 215.83797185 148.22287317 209.62145224 143 204.125 C142.33097656 203.40892578 141.66195313 202.69285156 140.97265625 201.95507812 C133.44841754 193.98866354 125.63549134 187.61183718 116.375 181.75 C115.4571875 181.16154297 114.539375 180.57308594 113.59375 179.96679688 C111.35786064 178.53443026 109.11833203 177.10817013 106.875 175.6875 C106.39449492 192.90190246 108.76796122 207.5413804 113.7890625 223.97265625 C115.58971258 230.13243406 116.08523543 235.61281552 116.125 242 C116.1559375 243.22493164 116.1559375 243.22493164 116.1875 244.47460938 C116.21456758 248.72083635 115.90570754 252.08776938 114.296875 256.04296875 C112.75644092 259.97948972 112.75644092 259.97948972 113.875 263.6875 C115.43480384 265.79907587 115.43480384 265.79907587 117.5 267.9375 C118.30566406 268.80632812 119.11132812 269.67515625 119.94140625 270.5703125 C120.40047363 271.05790039 120.85954102 271.54548828 121.33251953 272.04785156 C123.07207437 273.896989 124.7997662 275.7568569 126.52734375 277.6171875 C129.73199151 281.06186112 132.95578723 284.48776313 136.19091797 287.90380859 C137.61631081 289.41350997 139.03016467 290.93409323 140.44140625 292.45703125 C141.12074219 293.17246094 141.80007813 293.88789063 142.5 294.625 C143.04914063 295.21152344 143.59828125 295.79804688 144.1640625 296.40234375 C145.84280925 297.87157355 145.84280925 297.87157355 148.24609375 298.06640625 C151.97254594 298.94680134 153.62072007 300.99945347 156.3125 303.6875 C161.19975808 308.42745811 166.28377642 312.16402228 172.15405273 315.60546875 C176.81912177 318.39871338 180.00661534 321.07848653 181.75390625 326.328125 C181.93043367 331.22533733 180.9043083 335.6794937 179.8125 340.4375 C179.46687012 341.95863403 179.46687012 341.95863403 179.11425781 343.51049805 C174.98381535 361.17021866 171.72095897 374.12352735 155.875 384.6875 C194.815 385.0175 233.755 385.3475 273.875 385.6875 C273.875 386.3475 273.875 387.0075 273.875 387.6875 C118.115 387.6875 -37.645 387.6875 -198.125 387.6875 C-198.125 387.0275 -198.125 386.3675 -198.125 385.6875 C-182.945 385.6875 -167.765 385.6875 -152.125 385.6875 C-153.775 381.7275 -155.425 377.7675 -157.125 373.6875 C-157.92052494 371.22882323 -158.66239408 368.75106251 -159.3125 366.25 C-159.61542969 365.11691406 -159.91835937 363.98382813 -160.23046875 362.81640625 C-164.85055935 342.70724861 -165.64451896 319.71890857 -160.125 299.6875 C-159.90457031 298.88473633 -159.68414062 298.08197266 -159.45703125 297.25488281 C-149.54205303 262.46065369 -127.60455238 233.68611824 -96.17822266 215.56494141 C-78.43090887 205.71524926 -58.44660403 199.61248336 -38.125 198.6875 C-36.52205078 198.60822266 -36.52205078 198.60822266 -34.88671875 198.52734375 C-13.48827552 197.98945938 7.66920176 202.21985298 26.875 211.6875 C25.885 203.7675 25.885 203.7675 24.875 195.6875 C23.225 195.3575 21.575 195.0275 19.875 194.6875 C18.08668141 185.21899174 17.63610345 176.28317793 17.875 166.6875 C17.32457031 166.56375 16.77414063 166.44 16.20703125 166.3125 C0.16977199 162.33426514 -21.40721528 156.40664381 -31.75 142.4375 C-39.00691864 129.63772019 -40.08848193 114.27264595 -41.42822266 99.92138672 C-41.45248025 95.98023617 -41.45248025 95.98023617 -43.125 92.6875 C-43.491142 85.95694849 -43.14858943 79.3408313 -42.125 72.6875 C-43.775 72.0275 -45.425 71.3675 -47.125 70.6875 C-46.91875 69.57375 -46.7125 68.46 -46.5 67.3125 C-46.37625 66.11625 -46.2525 64.92 -46.125 63.6875 C-46.785 63.0275 -47.445 62.3675 -48.125 61.6875 C-47.72392781 58.17097622 -46.60039591 55.00681696 -45.34765625 51.7109375 C-44.82461914 50.33421875 -44.82461914 50.33421875 -44.29101562 48.9296875 C-43.74477539 47.51042969 -43.74477539 47.51042969 -43.1875 46.0625 C-42.64706055 44.63164063 -42.64706055 44.63164063 -42.09570312 43.171875 C-40.65094148 39.39367696 -39.37796921 36.06695381 -37.125 32.6875 C-34.815 33.0175 -32.505 33.3475 -30.125 33.6875 C-29.135 30.7175 -29.135 30.7175 -28.125 27.6875 C-23.53817608 28.23355047 -20.20139986 29.55795218 -16.125 31.6875 C-14.830826 29.12623936 -13.53959216 26.56356642 -12.25 24 C-11.88519531 23.27876953 -11.52039063 22.55753906 -11.14453125 21.81445312 C-7.93893117 15.43239479 -5.84949179 10.90524103 -6.34765625 3.67578125 C-6.27417969 3.01964844 -6.20070312 2.36351563 -6.125 1.6875 C-3.125 -0.3125 -3.125 -0.3125 0 0 Z M100.875 313.6875 C100.89856567 314.8027002 100.89856567 314.8027002 100.92260742 315.94042969 C101.32745052 338.11284915 99.62460289 357.59220646 92.875 378.6875 C91.885 382.1525 91.885 382.1525 90.875 385.6875 C101.765 385.6875 112.655 385.6875 123.875 385.6875 C124.205 382.3875 124.535 379.0875 124.875 375.6875 C126.43359375 373.03125 126.43359375 373.03125 128.3125 371.1875 C128.92996094 370.5584375 129.54742187 369.929375 130.18359375 369.28125 C131.02083984 368.49234375 131.02083984 368.49234375 131.875 367.6875 C134.15845572 365.40404428 134.25284669 364.61074771 134.7265625 361.51171875 C134.85546875 360.68349609 134.984375 359.85527344 135.1171875 359.00195312 C135.24351562 358.13505859 135.36984375 357.26816406 135.5 356.375 C135.6340625 355.51970703 135.768125 354.66441406 135.90625 353.78320312 C136.91282357 347.75687398 136.91282357 347.75687398 136.875 341.6875 C135.43173279 339.98318018 135.43173279 339.98318018 133.375 338.71484375 C132.2921875 337.95397461 132.2921875 337.95397461 131.1875 337.17773438 C130.424375 336.66533203 129.66125 336.15292969 128.875 335.625 C127.36670275 334.60460634 125.86622317 333.57253142 124.375 332.52734375 C123.7046875 332.07738037 123.034375 331.62741699 122.34375 331.16381836 C120.875 329.6875 120.875 329.6875 120.875 325.6875 C119.246186 324.02661394 119.246186 324.02661394 117.0078125 322.671875 C116.20472656 322.14335937 115.40164063 321.61484375 114.57421875 321.0703125 C113.72472656 320.53148437 112.87523437 319.99265625 112 319.4375 C111.15824219 318.88320313 110.31648438 318.32890625 109.44921875 317.7578125 C105.46572712 314.82231444 105.46572712 314.82231444 100.875 313.6875 Z " fill="#596068" transform="translate(209.125,83.3125)"/>
<path d="M0 0 C16.4941752 -0.41460768 33.34479005 1.96157599 48.89697266 7.53027344 C50.67981099 8.13248906 52.50903746 8.59173442 54.3359375 9.04296875 C58.13768053 10.28117215 60.06432154 11.17715227 62.76171875 14.16015625 C65.0586025 20.34249933 65.60405945 27.00914372 66.390625 33.51708984 C67.38738814 40.61640413 69.72180094 47.39799172 73.07421875 53.72265625 C74.76171875 57.16015625 74.76171875 57.16015625 74.60546875 59.12109375 C73.51089798 61.76630645 71.98246773 63.20406131 69.94921875 65.22265625 C55.34209372 81.12000053 46.32139968 102.00959069 36.76171875 121.16015625 C35.77171875 121.16015625 34.78171875 121.16015625 33.76171875 121.16015625 C33.43171875 122.48015625 33.10171875 123.80015625 32.76171875 125.16015625 C28.3558426 124.57637766 24.08417418 123.81063675 19.76171875 122.78515625 C-19.27902151 114.41633864 -55.14942952 118.13271798 -92.23828125 132.16015625 C-92.9873877 132.44117188 -93.73649414 132.7221875 -94.50830078 133.01171875 C-103.51410983 136.42957401 -111.91870035 140.38018559 -120.15136719 145.40380859 C-121.80648825 146.39371967 -123.51924772 147.28592893 -125.23828125 148.16015625 C-126.22828125 147.83015625 -127.21828125 147.50015625 -128.23828125 147.16015625 C-128.88995359 114.41278589 -128.88995359 114.41278589 -125.23828125 101.16015625 C-125.01785156 100.35739258 -124.79742187 99.55462891 -124.5703125 98.72753906 C-114.65533428 63.93330994 -92.71783363 35.15877449 -61.29150391 17.03759766 C-42.30343347 6.49929026 -21.64528601 1.07051475 0 0 Z " fill="#BFCBDC" transform="translate(174.23828125,281.83984375)"/>
<path d="M0 0 C4.85818118 2.30341829 9.14022994 5.40195829 13.5625 8.4375 C14.85704102 9.31631836 14.85704102 9.31631836 16.17773438 10.21289062 C17.00724609 10.78072266 17.83675781 11.34855469 18.69140625 11.93359375 C19.44623291 12.44978271 20.20105957 12.96597168 20.97875977 13.49780273 C25.75172251 17.04509586 25.75172251 17.04509586 26.50292969 19.93432617 C26.55868164 20.65080322 26.61443359 21.36728027 26.671875 22.10546875 C26.73568359 22.90388184 26.79949219 23.70229492 26.86523438 24.52490234 C28.1257071 47.67467136 25.16837842 69.60711702 16 91 C76.39 91 136.78 91 199 91 C199 91.66 199 92.32 199 93 C43.24 93 -112.52 93 -273 93 C-273 92.34 -273 91.68 -273 91 C-257.82 91 -242.64 91 -227 91 C-228.65 87.04 -230.3 83.08 -232 79 C-232.81549843 76.37361535 -233.57832123 73.72929239 -234.25 71.0625 C-234.72179687 69.22365234 -234.72179687 69.22365234 -235.203125 67.34765625 C-235.46609375 66.24292969 -235.7290625 65.13820313 -236 64 C-236.20109375 63.17371094 -236.4021875 62.34742188 -236.609375 61.49609375 C-237.10771388 58.31170828 -237.06308393 55.21728042 -237 52 C-223.23848905 43.73957836 -209.02190893 37.60775611 -194 32 C-193.27184082 31.72285156 -192.54368164 31.44570313 -191.79345703 31.16015625 C-155.72508605 17.54597899 -114.63576052 17.28652555 -78 29 C-80.13658043 36.01916861 -82.96682136 42.32314364 -86.375 48.8125 C-86.84421875 49.73998047 -87.3134375 50.66746094 -87.796875 51.62304688 C-92.53690128 60.70373259 -97.32968725 63.43935067 -106.875 66.5 C-113.00188062 68.4819599 -118.57951405 70.47307047 -124 74 C-125.44207941 76.88415883 -125.09394887 79.41721528 -125.0625 82.625 C-125.05347656 83.81351562 -125.04445312 85.00203125 -125.03515625 86.2265625 C-125.02355469 87.14179688 -125.01195312 88.05703125 -125 89 C-121.14605271 89.17199812 -117.29181854 89.33655039 -113.4375 89.5 C-112.37080078 89.54769531 -111.30410156 89.59539062 -110.20507812 89.64453125 C-101.79649245 89.99593483 -93.4142824 90.05265783 -85 90 C-85.93271729 89.94465088 -86.86543457 89.88930176 -87.82641602 89.83227539 C-91.3135409 89.62396265 -94.80048951 89.41305772 -98.28735352 89.20043945 C-99.79152339 89.1092434 -101.29575483 89.01905675 -102.80004883 88.92993164 C-104.97234108 88.80104854 -107.14438006 88.66843957 -109.31640625 88.53515625 C-110.62037354 88.456604 -111.92434082 88.37805176 -113.26782227 88.29711914 C-116.88880255 88.00885244 -120.41254575 87.55425864 -124 87 C-124.10853491 85.25138208 -124.18583428 83.50080759 -124.25 81.75 C-124.29640625 80.77546875 -124.3428125 79.8009375 -124.390625 78.796875 C-123.884767 75.1749317 -122.76736607 74.33511882 -120 72 C-117.29858398 70.7355957 -117.29858398 70.7355957 -114.24609375 69.67578125 C-113.14458984 69.28712891 -112.04308594 68.89847656 -110.90820312 68.49804688 C-109.76287109 68.10681641 -108.61753906 67.71558594 -107.4375 67.3125 C-106.28830078 66.90966797 -105.13910156 66.50683594 -103.95507812 66.09179688 C-99.97872694 64.70112221 -95.99634461 63.33211487 -92 62 C-91.27006419 60.36005612 -90.6230923 58.68344237 -90 57 C-88.45709651 53.92612462 -86.81340899 50.90564434 -85.1875 47.875 C-81.5364906 41.01375617 -78.05345702 34.15151777 -75 27 C-62.98836758 32.73328337 -51.50463288 39.31888125 -40 46 C-41.3331463 49.48127125 -42.77360866 52.08470158 -45 55.0625 C-48.69986586 60.99120071 -48.7882121 66.85703025 -49.23779297 73.64770508 C-49.73981539 80.27978434 -51.17006742 85.44513595 -55 91 C-50.7515591 87.24923361 -49.31931971 82.39664586 -48 77 C-47.86534601 74.36347489 -47.78055557 71.76128405 -47.75 69.125 C-47.62536052 61.46012676 -45.22207189 56.96659992 -40.71484375 50.8671875 C-38.73949972 48.13100381 -38.73949972 48.13100381 -39.03125 45.0234375 C-38.98879057 40.91548741 -37.08215805 38.77496653 -34.5625 35.75 C-34.1072998 35.1835376 -33.65209961 34.6170752 -33.18310547 34.03344727 C-23.2149932 21.74729014 -12.15252472 10.15093241 0 0 Z " fill="#BECADB" transform="translate(284,378)"/>
<path d="M0 0 C2.25325421 0.00502488 4.50650951 0.00958604 6.75976562 0.01367188 C12.23570106 0.02459953 17.71159536 0.04125932 23.1875 0.0625 C23.29492523 0.65643051 23.40235046 1.25036102 23.51303101 1.86228943 C24.01076438 4.59547061 24.51704298 7.32700457 25.0234375 10.05859375 C25.19222412 10.99264038 25.36101074 11.92668701 25.53491211 12.88903809 C26.82095626 19.77856031 28.74559514 26.10812134 31.08203125 32.71484375 C34.62615606 43.44740544 36.58705135 57.10947365 32.34375 67.89453125 C25.94031592 79.90097016 14.34588715 89.53269351 3.87109375 97.8828125 C1.22667802 100.03067855 -1.2970497 102.26561173 -3.8125 104.5625 C-7.24173766 107.69283422 -10.75136396 110.65955931 -14.375 113.5625 C-24.31651382 121.66350916 -32.10700712 130.89655927 -39.8125 141.0625 C-40.4828125 141.94550781 -41.153125 142.82851563 -41.84375 143.73828125 C-43.17539568 145.50648058 -44.49578453 147.28315477 -45.8125 149.0625 C-50.16087687 147.74154588 -53.91701052 146.04447857 -57.8671875 143.8046875 C-58.97578125 143.17949219 -60.084375 142.55429687 -61.2265625 141.91015625 C-62.93972656 140.93369141 -62.93972656 140.93369141 -64.6875 139.9375 C-65.86431177 139.27165523 -67.04139276 138.60628604 -68.21875 137.94140625 C-71.08601326 136.31975735 -73.95045084 134.69332801 -76.8125 133.0625 C-68.8230972 108.00534211 -52.95741221 85.62756345 -35.24023438 66.59912109 C-32.89748381 64.07769974 -30.57424888 61.53846537 -28.25 59 C-27.80188965 58.51128418 -27.3537793 58.02256836 -26.89208984 57.51904297 C-22.18280301 52.38148466 -17.49603605 47.22353321 -12.8125 42.0625 C-17.94180616 46.31061766 -22.55504556 50.78978977 -27.0625 55.6875 C-27.67351562 56.34234375 -28.28453125 56.9971875 -28.9140625 57.671875 C-31.27917528 60.22289184 -33.55621921 62.71150675 -35.609375 65.5234375 C-36.00640625 66.03132813 -36.4034375 66.53921875 -36.8125 67.0625 C-37.4725 67.0625 -38.1325 67.0625 -38.8125 67.0625 C-47.60076929 47.13034286 -52.5179231 25.93061606 -51.8125 4.0625 C-49.7527842 3.57150328 -47.68948702 3.09553194 -45.625 2.625 C-44.47644531 2.35816406 -43.32789063 2.09132813 -42.14453125 1.81640625 C-28.32345995 -0.82364787 -13.99732257 -0.05448829 0 0 Z " fill="#FEFEFE" transform="translate(288.8125,271.9375)"/>
<path d="M0 0 C9.80593292 8.3007003 14.93045263 17.27040369 16.49609375 30.09375 C16.94597661 41.59984508 13.38487892 51.9087031 6.49609375 61.09375 C7.44484375 61.17625 8.39359375 61.25875 9.37109375 61.34375 C20.28326101 63.03097265 26.73144706 68.55297021 34.49609375 76.09375 C35.75765318 77.20850074 37.02768355 78.31378927 38.30859375 79.40625 C59.87298244 98.26399731 74.76438322 119.17737975 86.328125 145.40625 C87.85589428 147.61359558 88.94735656 147.46011218 91.49609375 148.09375 C93.36328125 149.9921875 93.36328125 149.9921875 95.37109375 152.46875 C99.15284009 156.88603108 103.12218883 160.17594626 107.80859375 163.59375 C113.72795608 168.01499251 116.84413141 171.70212288 118.49609375 179.09375 C118.72425781 179.83238281 118.95242188 180.57101562 119.1875 181.33203125 C120.83454264 187.16401243 121.32358412 193.25669119 119.49609375 199.09375 C117.23211826 201.83404242 114.56845798 203.36177997 111.49609375 205.09375 C110.6453125 205.65191406 109.79453125 206.21007812 108.91796875 206.78515625 C101.32260437 211.68575812 101.32260437 211.68575812 96.49609375 211.09375 C94.99609375 209.21875 94.99609375 209.21875 93.49609375 206.09375 C92.62326295 204.34266708 91.74809776 202.59274656 90.87109375 200.84375 C90.44570313 199.97234375 90.0203125 199.1009375 89.58203125 198.203125 C88.6678091 196.16378895 88.6678091 196.16378895 87.49609375 195.09375 C87.59148437 196.00898438 87.686875 196.92421875 87.78515625 197.8671875 C87.89601563 199.05570313 88.006875 200.24421875 88.12109375 201.46875 C88.23710937 202.65210938 88.353125 203.83546875 88.47265625 205.0546875 C88.48039063 206.05757812 88.488125 207.06046875 88.49609375 208.09375 C86.49609375 210.09375 86.49609375 210.09375 84.12109375 210.59375 C81.49609375 210.09375 81.49609375 210.09375 79.37109375 207.59375 C75.6621061 200.67030639 74.17684086 195.1171291 74.18359375 187.28125 C74.01539523 180.22053707 72.88628051 175.34929322 68.87109375 169.35546875 C67.49609375 167.09375 67.49609375 167.09375 67.18359375 164.80078125 C65.26446755 157.24422185 57.84396692 151.02770224 52.62109375 145.53125 C51.95207031 144.81517578 51.28304687 144.09910156 50.59375 143.36132812 C42.66243409 134.96391369 34.33147085 128.45048134 24.59179688 122.28125 C23.43260742 121.53101563 23.43260742 121.53101563 22.25 120.765625 C21.20307983 120.10191895 21.20307983 120.10191895 20.13500977 119.42480469 C18.49609375 118.09375 18.49609375 118.09375 17.49609375 115.09375 C21.96160947 116.64734197 25.72689016 119.02860777 29.62109375 121.65625 C30.28270508 122.10242676 30.94431641 122.54860352 31.62597656 123.00830078 C45.53540431 132.50668359 56.41871414 143.831278 66.62109375 157.109375 C67.23984375 157.76421875 67.85859375 158.4190625 68.49609375 159.09375 C72.63607071 159.09375 74.95216406 156.92542083 78.18359375 154.59375 C79.09334961 153.94986328 79.09334961 153.94986328 80.02148438 153.29296875 C81.51747401 152.23281862 83.00738075 151.16409429 84.49609375 150.09375 C69.84064097 118.53082451 49.27536256 79.83720292 15.04296875 65.6640625 C8.31373521 63.15680881 8.31373521 63.15680881 1.49609375 64.09375 C-0.01489819 65.15394876 -1.49126372 66.26423219 -2.94140625 67.40625 C-13.41209784 74.83509104 -25.01034598 76.39675935 -37.50390625 75.09375 C-42.12964988 73.92915102 -46.37214268 72.32617581 -50.50390625 69.9375 C-53.00658403 68.88168281 -54.58543425 69.07632765 -57.25390625 69.46875 C-58.053125 69.57960938 -58.85234375 69.69046875 -59.67578125 69.8046875 C-60.2790625 69.90007812 -60.88234375 69.99546875 -61.50390625 70.09375 C-61.17390625 69.10375 -60.84390625 68.11375 -60.50390625 67.09375 C-59.51390625 67.09375 -58.52390625 67.09375 -57.50390625 67.09375 C-58.40882813 66.041875 -58.40882813 66.041875 -59.33203125 64.96875 C-69.3817316 53.03878313 -73.59677594 42.90891236 -72.69921875 27.03710938 C-71.87296241 18.81585883 -67.84805709 12.17547129 -62.50390625 6.09375 C-62.00246094 5.48789063 -61.50101563 4.88203125 -60.984375 4.2578125 C-45.75937378 -12.70824726 -17.64119399 -13.43042538 0 0 Z " fill="#798492" transform="translate(299.50390625,141.90625)"/>
<path d="M0 0 C3.05330823 0.40892521 6.01815794 1.23838399 9 2 C9.72960937 2.16113281 10.45921875 2.32226562 11.2109375 2.48828125 C18.49444235 4.42090799 23.5215342 9.03001962 29 14 C29.85537354 14.7729541 29.85537354 14.7729541 30.72802734 15.56152344 C34.56230624 19.04610619 38.33740316 22.58828848 42.08154297 26.16943359 C43.34600129 27.37596305 44.61575925 28.57696626 45.89111328 29.77197266 C63.1598204 45.97241899 73.72455244 66.35281623 83 88 C81.0862931 89.46236093 79.16924767 90.91994246 77.25 92.375 C76.71117187 92.7875 76.17234375 93.2 75.6171875 93.625 C72.85055187 95.71684645 70.1790912 97.59564418 67 99 C57.48575175 88.58601399 57.48575175 88.58601399 53.3125 83.8125 C52.47138672 82.85730469 52.47138672 82.85730469 51.61328125 81.8828125 C50.55949618 80.65297133 49.53415153 79.39801886 48.54296875 78.1171875 C40.68804899 68.29356634 29.13794762 61.4364653 18.48022461 54.99243164 C13.58770016 51.97247085 11.58506141 49.82321464 9.82421875 44.3359375 C8.79990329 39.75676972 8.73934755 35.29905646 8.8125 30.625 C8.8134668 29.41650391 8.8134668 29.41650391 8.81445312 28.18359375 C8.85893654 22.28212691 8.85893654 22.28212691 10 20 C9.34 20 8.68 20 8 20 C7.27680536 33.88191394 7.27680536 33.88191394 10.29614258 47.24755859 C11.23958776 50.9369103 11.15938847 54.51929702 11.09375 58.296875 C11.08698242 59.03856934 11.08021484 59.78026367 11.07324219 60.54443359 C11.05567116 62.36303472 11.02877139 64.18154158 11 66 C9.78231934 66.01981934 8.56463867 66.03963867 7.31005859 66.06005859 C-32.08247668 66.47504403 -32.08247668 66.47504403 -71 72 C-73.89483567 56.15594408 -73.82419621 41.50931715 -70.75 25.6875 C-70.54560303 24.61975342 -70.34120605 23.55200684 -70.13061523 22.4519043 C-68.93738605 16.79229249 -67.74150296 12.46614188 -64 8 C-61.16861926 6.28626955 -59.54733937 5.97512094 -56.25 6.125 C-52.66587597 7.08995647 -49.49174276 8.46709819 -46.1484375 10.0625 C-36.43962737 14.29907169 -23.69951828 12.71644773 -13.9921875 9.3515625 C-8.90253972 7.05258321 -3.97248531 3.97248531 0 0 Z " fill="#FEFEFE" transform="translate(302,204)"/>
<path d="M0 0 C1.78283834 0.60221562 3.6120648 1.06146098 5.43896484 1.51269531 C9.24070787 2.75089871 11.16734888 3.64687884 13.86474609 6.62988281 C16.16162985 12.81222589 16.7070868 19.47887029 17.49365234 25.98681641 C18.49041548 33.08613069 20.82482828 39.86771828 24.17724609 46.19238281 C25.86474609 49.62988281 25.86474609 49.62988281 25.56396484 51.70410156 C24.4985095 54.63856796 23.4421439 55.82570435 20.86474609 57.62988281 C2.79400897 59.40733237 -17.46916801 53.21977384 -34.64697266 47.97363281 C-39.65400908 46.4519413 -44.70557403 45.10799544 -49.76025391 43.75488281 C-57.51504693 41.66781047 -65.21015287 39.43043019 -72.88525391 37.06738281 C-91.46341842 31.35510864 -109.84442607 26.3536708 -129.13525391 23.62988281 C-98.02886155 -9.22733838 -40.68169163 -14.56670346 0 0 Z " fill="#D0DDEF" transform="translate(223.13525390625,289.3701171875)"/>
<path d="M0 0 C0.78722443 0.06285187 1.57444885 0.12570374 2.38552856 0.19046021 C10.34360729 0.84391409 18.12430599 1.60384397 25.875 3.625 C25.15582172 7.31030276 23.62038155 10.36230255 21.93359375 13.703125 C21.35029297 14.86328125 20.76699219 16.0234375 20.16601562 17.21875 C19.54826397 18.43754404 18.93042431 19.65629348 18.3125 20.875 C17.69038694 22.10918944 17.06863807 23.34356252 16.44726562 24.578125 C14.92675264 27.59557712 13.4025371 30.6110993 11.875 33.625 C10.885 33.625 9.895 33.625 8.875 33.625 C8.545 34.945 8.215 36.265 7.875 37.625 C3.46912385 37.04122141 -0.80254457 36.2754805 -5.125 35.25 C-44.16574026 26.88118239 -80.03614827 30.59756173 -117.125 44.625 C-117.87410645 44.90601563 -118.62321289 45.18703125 -119.39501953 45.4765625 C-128.40082858 48.89441776 -136.8054191 52.84502934 -145.03808594 57.86865234 C-146.693207 58.85856342 -148.40596647 59.75077268 -150.125 60.625 C-151.115 60.295 -152.105 59.965 -153.125 59.625 C-153.125 50.055 -153.125 40.485 -153.125 30.625 C-152.465 31.285 -151.805 31.945 -151.125 32.625 C-149.90490234 31.69880859 -149.90490234 31.69880859 -148.66015625 30.75390625 C-129.77767158 16.68718272 -108.37080841 6.74814911 -85.125 2.625 C-84.09987305 2.44308105 -83.07474609 2.26116211 -82.01855469 2.07373047 C-54.6132822 -2.58036619 -27.63122528 -2.21511788 0 0 Z " fill="#D0DDEF" transform="translate(199.125,369.375)"/>
<path d="M0 0 C4.85818118 2.30341829 9.14022994 5.40195829 13.5625 8.4375 C14.42552734 9.02337891 15.28855469 9.60925781 16.17773438 10.21289062 C17.00724609 10.78072266 17.83675781 11.34855469 18.69140625 11.93359375 C19.44623291 12.44978271 20.20105957 12.96597168 20.97875977 13.49780273 C25.75172251 17.04509586 25.75172251 17.04509586 26.50292969 19.93432617 C26.58655762 21.00904175 26.58655762 21.00904175 26.671875 22.10546875 C26.76758789 23.30308838 26.76758789 23.30308838 26.86523438 24.52490234 C28.1257071 47.67467136 25.16837842 69.60711702 16 91 C-6.77 91 -29.54 91 -53 91 C-51.35 86.38 -49.7 81.76 -48 77 C-47.49280039 72.72173449 -47.49280039 72.72173449 -47.6875 68.9375 C-47.64361149 61.29716465 -45.13143847 56.84395012 -40.71484375 50.8671875 C-38.73949972 48.13100381 -38.73949972 48.13100381 -39.03125 45.0234375 C-38.98879057 40.91548741 -37.08215805 38.77496653 -34.5625 35.75 C-34.1072998 35.1835376 -33.65209961 34.6170752 -33.18310547 34.03344727 C-23.2149932 21.74729014 -12.15252472 10.15093241 0 0 Z " fill="#BFCADB" transform="translate(284,378)"/>
<path d="M0 0 C1.73783052 1.58419623 3.45002717 3.19720888 5.12890625 4.84375 C7.19477382 6.97179728 7.19477382 6.97179728 10.2578125 7.76953125 C12.55010129 7.22849415 14.81991908 6.58954093 17.0703125 5.89453125 C23.03399176 4.06643664 28.68394046 2.636668 34.9453125 2.58203125 C35.69167969 2.56785156 36.43804687 2.55367187 37.20703125 2.5390625 C39.2578125 2.76953125 39.2578125 2.76953125 42.2578125 4.76953125 C41.74633019 9.24500147 40.24470296 11.4435614 37.2578125 14.76953125 C35.24866328 16.34027174 33.18056204 17.83748616 31.0703125 19.26953125 C30.49949951 19.66624023 29.92868652 20.06294922 29.34057617 20.47167969 C26.02404207 22.73826512 22.7594657 24.46242113 19.0703125 26.01953125 C16.86531048 27.04506749 16.86531048 27.04506749 15.2578125 28.76953125 C14.32926922 31.99944016 13.99767205 35.06921 13.6953125 38.4140625 C12.67986226 46.20220317 8.10083683 53.57432048 2.2578125 58.76953125 C-7.86512477 66.02653761 -17.38575914 67.79817534 -29.7421875 66.76953125 C-35.2220633 65.53472367 -39.86657396 63.83359201 -43.9921875 59.95703125 C-46.57095592 57.39778655 -46.57095592 57.39778655 -49.8984375 58.00390625 C-53.24928674 58.67135183 -56.53914869 59.42779475 -59.84545898 60.28076172 C-74.35779728 64.00746021 -74.35779728 64.00746021 -81.7421875 62.76953125 C-83.7421875 60.76953125 -83.7421875 60.76953125 -83.8671875 58.08203125 C-80.81046876 49.08169274 -68.64738964 43.34458918 -60.7421875 38.76953125 C-60.0821875 38.76953125 -59.4221875 38.76953125 -58.7421875 38.76953125 C-58.80019531 37.6815625 -58.85820312 36.59359375 -58.91796875 35.47265625 C-59.36707077 23.47834621 -57.85628905 14.41050694 -49.9921875 4.83203125 C-37.31906331 -8.36714715 -14.71231147 -11.96685164 0 0 Z M10.2578125 10.76953125 C10.71076115 12.52093268 11.17039998 14.27060469 11.6328125 16.01953125 C11.88804687 16.9940625 12.14328125 17.96859375 12.40625 18.97265625 C13.15379759 21.42790428 14.02905067 23.5257053 15.2578125 25.76953125 C23.87063482 20.51992917 32.37734843 15.26828587 39.2578125 7.76953125 C39.2578125 7.10953125 39.2578125 6.44953125 39.2578125 5.76953125 C29.08756146 4.93590412 19.93387883 7.98791054 10.2578125 10.76953125 Z M-78.94140625 55.8515625 C-80.97034891 57.57406403 -80.97034891 57.57406403 -80.7421875 59.76953125 C-70.25076344 60.83046177 -60.69793436 57.65824536 -50.7421875 54.76953125 C-51.98142664 51.58211886 -53.31728742 48.50516807 -54.8671875 45.45703125 C-55.22039062 44.75964844 -55.57359375 44.06226563 -55.9375 43.34375 C-56.20304687 42.82425781 -56.46859375 42.30476563 -56.7421875 41.76953125 C-64.99486837 41.76953125 -73.14871861 50.61742328 -78.94140625 55.8515625 Z " fill="#E8F2FE" transform="translate(446.7421875,100.23046875)"/>
<path d="M0 0 C3.32315453 1.39255999 6.63119633 2.81794179 9.9375 4.25 C10.88302734 4.64574219 11.82855469 5.04148437 12.80273438 5.44921875 C13.70185547 5.84238281 14.60097656 6.23554687 15.52734375 6.640625 C16.35999756 6.99672852 17.19265137 7.35283203 18.05053711 7.71972656 C20 9 20 9 20.828125 10.98632812 C21.06912548 13.80986787 20.18372216 15.6677914 19.0625 18.25 C18.68222656 19.14203125 18.30195313 20.0340625 17.91015625 20.953125 C17.60980469 21.62859375 17.30945313 22.3040625 17 23 C17.97453125 23.58201172 17.97453125 23.58201172 18.96875 24.17578125 C21 26 21 26 21.53125 28.41796875 C21.4410092 36.41555986 19.74634554 41.44590578 14.875 47.75 C12.10825157 52.54569729 11.66904667 57.55959417 11 63 C9.515 63.495 9.515 63.495 8 64 C9.30059251 67.01737462 10.64258935 70.00807416 12 73 C12.49757812 74.15628906 12.99515625 75.31257813 13.5078125 76.50390625 C16.8980005 84.10274304 20.06797102 89.59730751 28 93 C35.51186522 95.870519 43.14902602 98.23753645 51 100 C50.112193 104.02927792 49.22450766 108.05634748 48.26953125 112.0703125 C46.54307657 119.34420783 45.13177186 126.61019553 44 134 C36.78780707 133.5064886 30.73895291 131.24399177 24.0625 128.5625 C23.00998047 128.15451172 21.95746094 127.74652344 20.87304688 127.32617188 C13.13121227 124.26242455 13.13121227 124.26242455 12 122 C11.09894531 121.7215625 10.19789063 121.443125 9.26953125 121.15625 C5.5550559 119.8426482 3.55201331 118.17760273 0.6875 115.5 C-0.17488281 114.7059375 -1.03726563 113.911875 -1.92578125 113.09375 C-4 111 -4 111 -5 109 C-6.485 108.505 -6.485 108.505 -8 108 C-13.14637097 96.18715561 -14.11927765 82.91626719 -15.30322266 70.23388672 C-15.32748025 66.29273617 -15.32748025 66.29273617 -17 63 C-17.366142 56.26944849 -17.02358943 49.6533313 -16 43 C-17.65 42.34 -19.3 41.68 -21 41 C-20.79375 39.88625 -20.5875 38.7725 -20.375 37.625 C-20.25125 36.42875 -20.1275 35.2325 -20 34 C-20.66 33.34 -21.32 32.68 -22 32 C-21.8125 29.9375 -21.8125 29.9375 -21 28 C-20.01 27.67 -19.02 27.34 -18 27 C-17.1456164 25.07503362 -17.1456164 25.07503362 -16.625 22.6875 C-14.96369803 16.54867827 -12.53171678 10.82394928 -10 5 C-7.36 5.33 -4.72 5.66 -2 6 C-1.855625 5.195625 -1.71125 4.39125 -1.5625 3.5625 C-1 1 -1 1 0 0 Z " fill="#5E656F" transform="translate(183,113)"/>
<path d="M0 0 C9.80593292 8.3007003 14.93045263 17.27040369 16.49609375 30.09375 C16.94597661 41.59984508 13.38487892 51.9087031 6.49609375 61.09375 C7.44484375 61.17625 8.39359375 61.25875 9.37109375 61.34375 C20.28326101 63.03097265 26.73144706 68.55297021 34.49609375 76.09375 C35.75765318 77.20850074 37.02768355 78.31378927 38.30859375 79.40625 C59.87298244 98.26399731 74.76438322 119.17737975 86.328125 145.40625 C87.85589428 147.61359558 88.94735656 147.46011218 91.49609375 148.09375 C93.36328125 149.9921875 93.36328125 149.9921875 95.37109375 152.46875 C99.15284009 156.88603108 103.12218883 160.17594626 107.80859375 163.59375 C113.72795608 168.01499251 116.84413141 171.70212288 118.49609375 179.09375 C118.72425781 179.83238281 118.95242188 180.57101562 119.1875 181.33203125 C120.83454264 187.16401243 121.32358412 193.25669119 119.49609375 199.09375 C117.23211826 201.83404242 114.56845798 203.36177997 111.49609375 205.09375 C110.6453125 205.65191406 109.79453125 206.21007812 108.91796875 206.78515625 C101.32260437 211.68575812 101.32260437 211.68575812 96.49609375 211.09375 C94.99609375 209.21875 94.99609375 209.21875 93.49609375 206.09375 C92.62326295 204.34266708 91.74809776 202.59274656 90.87109375 200.84375 C90.44570313 199.97234375 90.0203125 199.1009375 89.58203125 198.203125 C88.6678091 196.16378895 88.6678091 196.16378895 87.49609375 195.09375 C87.59148437 196.00898438 87.686875 196.92421875 87.78515625 197.8671875 C87.89601563 199.05570313 88.006875 200.24421875 88.12109375 201.46875 C88.23710937 202.65210938 88.353125 203.83546875 88.47265625 205.0546875 C88.48039063 206.05757812 88.488125 207.06046875 88.49609375 208.09375 C86.49609375 210.09375 86.49609375 210.09375 84.12109375 210.59375 C81.49609375 210.09375 81.49609375 210.09375 79.37109375 207.59375 C75.6621061 200.67030639 74.17684086 195.1171291 74.18359375 187.28125 C74.01539523 180.22053707 72.88628051 175.34929322 68.87109375 169.35546875 C67.49609375 167.09375 67.49609375 167.09375 67.18359375 164.80078125 C65.26446755 157.24422185 57.84396692 151.02770224 52.62109375 145.53125 C51.95207031 144.81517578 51.28304687 144.09910156 50.59375 143.36132812 C42.66243409 134.96391369 34.33147085 128.45048134 24.59179688 122.28125 C23.43260742 121.53101563 23.43260742 121.53101563 22.25 120.765625 C21.20307983 120.10191895 21.20307983 120.10191895 20.13500977 119.42480469 C18.49609375 118.09375 18.49609375 118.09375 17.49609375 115.09375 C21.96160947 116.64734197 25.72689016 119.02860777 29.62109375 121.65625 C30.28270508 122.10242676 30.94431641 122.54860352 31.62597656 123.00830078 C45.53540431 132.50668359 56.41871414 143.831278 66.62109375 157.109375 C67.23984375 157.76421875 67.85859375 158.4190625 68.49609375 159.09375 C72.63607071 159.09375 74.95216406 156.92542083 78.18359375 154.59375 C79.09334961 153.94986328 79.09334961 153.94986328 80.02148438 153.29296875 C81.51747401 152.23281862 83.00738075 151.16409429 84.49609375 150.09375 C69.84064097 118.53082451 49.27536256 79.83720292 15.04296875 65.6640625 C8.31373521 63.15680881 8.31373521 63.15680881 1.49609375 64.09375 C-0.01489819 65.15394876 -1.49126372 66.26423219 -2.94140625 67.40625 C-13.73600407 75.06489896 -24.76784055 75.682323 -37.50390625 75.09375 C-37.50390625 74.43375 -37.50390625 73.77375 -37.50390625 73.09375 C-36.81425781 73.10277344 -36.12460937 73.11179687 -35.4140625 73.12109375 C-27.34544066 72.86652818 -23.40420768 70.38456975 -17.50390625 65.09375 C-16.84390625 64.76375 -16.18390625 64.43375 -15.50390625 64.09375 C-16.99488283 67.8889631 -19.26091474 69.70417731 -22.50390625 72.09375 C-11.48776973 70.07508624 -1.76129992 65.95949981 5.2890625 56.91796875 C7.35797871 53.79116012 9.01261582 50.53272157 10.49609375 47.09375 C10.85574219 46.34738281 11.21539062 45.60101563 11.5859375 44.83203125 C14.41568649 36.3184946 13.43639996 24.09296696 9.49609375 16.09375 C5.33968633 9.14729438 -0.2283137 0.85141103 -8.484375 -1.4609375 C-9.15082031 -1.60789063 -9.81726563 -1.75484375 -10.50390625 -1.90625 C-11.86504084 -2.3869578 -13.21943231 -2.8871849 -14.56640625 -3.40625 C-24.59010133 -7.25411759 -34.60046357 -7.0525203 -44.68359375 -3.234375 C-56.24303765 2.20913044 -63.74718659 10.30618175 -68.50390625 22.09375 C-71.38926282 33.47185422 -69.39202208 44.24338207 -63.75390625 54.34375 C-57.72202051 63.84583173 -48.89581702 68.44746552 -38.50390625 72.09375 C-38.50390625 72.42375 -38.50390625 72.75375 -38.50390625 73.09375 C-42.52601698 73.49596107 -44.89829818 73.02457555 -48.31640625 71.03125 C-52.86775261 68.52228731 -56.54828354 69.0383859 -61.50390625 70.09375 C-61.17390625 69.10375 -60.84390625 68.11375 -60.50390625 67.09375 C-59.51390625 67.09375 -58.52390625 67.09375 -57.50390625 67.09375 C-58.40882813 66.041875 -58.40882813 66.041875 -59.33203125 64.96875 C-69.3817316 53.03878313 -73.59677594 42.90891236 -72.69921875 27.03710938 C-71.87296241 18.81585883 -67.84805709 12.17547129 -62.50390625 6.09375 C-62.00246094 5.48789063 -61.50101563 4.88203125 -60.984375 4.2578125 C-45.75937378 -12.70824726 -17.64119399 -13.43042538 0 0 Z " fill="#5A616A" transform="translate(299.50390625,141.90625)"/>
<path d="M0 0 C3.5320009 1.54883566 6.14109613 3.68774205 9.0625 6.1875 C12.83644874 9.34086626 16.60116413 12.08784273 20.8125 14.625 C25.41932576 17.50261609 29.33921925 20.17030179 32 25 C32.6965512 32.87577776 30.83371626 39.85898521 28.8125 47.4375 C28.52052734 48.60087891 28.22855469 49.76425781 27.92773438 50.96289062 C24.87531019 62.62774607 20.70259641 73.00590856 10.8125 80.375 C6.66050051 82.77393304 3.7407349 83.12068651 -0.98046875 83.09765625 C-2.14384766 83.09443359 -3.30722656 83.09121094 -4.50585938 83.08789062 C-5.72080078 83.07951172 -6.93574219 83.07113281 -8.1875 83.0625 C-9.41404297 83.05798828 -10.64058594 83.05347656 -11.90429688 83.04882812 C-14.93624668 83.03703065 -17.96809906 83.02056921 -21 83 C-21.35190531 76.62745381 -21.35190531 76.62745381 -19.7578125 73.78515625 C-19.21898437 73.21667969 -18.68015625 72.64820313 -18.125 72.0625 C-17.59132813 71.47597656 -17.05765625 70.88945312 -16.5078125 70.28515625 C-15 69 -15 69 -13 69 C-12.04407331 64.70734809 -11.18667645 60.40975489 -10.40771484 56.08251953 C-10.02785506 54.14227766 -9.54315447 52.22337849 -9.05078125 50.30859375 C-8.29118357 46.3788832 -7.98964161 43.89324768 -9 40 C-13.07044369 34.97587001 -18.61280569 31.46455606 -24 28 C-20.16739177 22.56907331 -16.0067703 17.88646661 -11.25 13.2421875 C-7.12133473 9.12785787 -3.23529027 4.85293541 0 0 Z " fill="#BDCCE0" transform="translate(356,384)"/>
<path d="M0 0 C12.01163242 5.73328337 23.49536712 12.31888125 35 19 C33.6668537 22.48127125 32.22639134 25.08470158 30 28.0625 C26.3231007 33.95086773 26.06724502 39.91443355 25.7578125 46.69165039 C25.37920753 53.4322649 23.88763968 59.11236032 19 64 C17.11650085 64.17803955 17.11650085 64.17803955 14.79174805 64.07519531 C13.48218391 64.02458954 13.48218391 64.02458954 12.14616394 63.97296143 C11.19429703 63.92516541 10.24243011 63.87736938 9.26171875 63.828125 C8.27113968 63.78564636 7.28056061 63.74316772 6.25996399 63.69940186 C4.14712674 63.60661535 2.03450799 63.50873873 -0.07788086 63.40625 C-3.23315875 63.25383262 -6.38878274 63.11761046 -9.54492188 62.984375 C-22.74534352 62.39988899 -35.86038484 61.38792082 -49 60 C-49.4950697 49.60353635 -49.4950697 49.60353635 -47.33520508 46.97045898 C-44.70461912 44.75075597 -42.49081763 43.80233859 -39.24609375 42.67578125 C-38.14458984 42.28712891 -37.04308594 41.89847656 -35.90820312 41.49804688 C-34.76287109 41.10681641 -33.61753906 40.71558594 -32.4375 40.3125 C-31.28830078 39.90966797 -30.13910156 39.50683594 -28.95507812 39.09179688 C-24.97872694 37.70112221 -20.99634461 36.33211487 -17 35 C-16.27006419 33.36005612 -15.6230923 31.68344237 -15 30 C-13.45709651 26.92612462 -11.81340899 23.90564434 -10.1875 20.875 C-6.5364906 14.01375617 -3.05345702 7.15151777 0 0 Z " fill="#BDCDE1" transform="translate(209,405)"/>
<path d="M0 0 C6.93 0.33 13.86 0.66 21 1 C21.886875 3.31 22.77375 5.62 23.6875 8 C27.37949564 17.27936867 30.45254048 24.7050942 40 29 C47.51992778 31.83025728 55.15540876 34.23896931 63 36 C62.112193 40.02927792 61.22450766 44.05634748 60.26953125 48.0703125 C58.54307657 55.34420783 57.13177186 62.61019553 56 70 C49.27691801 69.49851137 43.81613548 67.60009508 37.625 65 C36.72394531 64.63132812 35.82289063 64.26265625 34.89453125 63.8828125 C28.56696429 61.28348214 28.56696429 61.28348214 26 60 C25.79388163 57.77686612 25.68563529 55.54434506 25.625 53.3125 C25.20497654 45.82777933 25.20497654 45.82777933 21 40 C15.83269754 36.34507875 10.13319612 36.31648165 4 36 C3.51622009 34.14703165 3.03821364 32.29255559 2.5625 30.4375 C2.29566406 29.40496094 2.02882812 28.37242187 1.75390625 27.30859375 C0.27750891 20.82927486 -0.13551968 14.66981204 -0.0625 8.0625 C-0.041875 5.401875 -0.02125 2.74125 0 0 Z " fill="#FDFDFD" transform="translate(171,177)"/>
<path d="M0 0 C4.8858712 4.00776953 9.25631758 8.26174034 13.5 12.9375 C20.77736217 20.85275442 28.35004856 28.44647652 36 36 C33.71001099 40.73008121 30.51758821 44.12131424 27 48 C26.06605925 49.05047285 25.13248789 50.10127418 24.19921875 51.15234375 C23.2167027 52.2478955 22.23363034 53.3429486 21.25 54.4375 C20.77828369 54.96988281 20.30656738 55.50226563 19.82055664 56.05078125 C17.56634342 58.53641254 16.240314 59.91989533 13 61 C10.72607422 59.83520508 10.72607422 59.83520508 8.0546875 58.01953125 C6.57391724 57.02300537 6.57391724 57.02300537 5.06323242 56.00634766 C3.48505737 54.92039307 3.48505737 54.92039307 1.875 53.8125 C0.26685425 52.72267822 0.26685425 52.72267822 -1.3737793 51.61083984 C-9.25647157 46.25058556 -17.07599184 40.79966904 -24.83203125 35.2578125 C-26.86649292 33.80785092 -28.92130208 32.38579862 -31 31 C-29.4358183 26.7458243 -26.21979934 24.45007485 -22.8125 21.6875 C-14.706142 14.94969226 -7.35439653 7.53980148 0 0 Z " fill="#FCFDFD" transform="translate(318,347)"/>
<path d="M0 0 C4.85818118 2.30341829 9.14022994 5.40195829 13.5625 8.4375 C14.42552734 9.02337891 15.28855469 9.60925781 16.17773438 10.21289062 C17.00724609 10.78072266 17.83675781 11.34855469 18.69140625 11.93359375 C19.44623291 12.44978271 20.20105957 12.96597168 20.97875977 13.49780273 C24.71207214 16.27242177 25.85396047 17.1635918 26.6875 21.9375 C27.15604343 27.61624634 27.08669843 33.30680312 27 39 C3.37761049 50.49622956 -11.9420668 50.19387255 -37 42 C-36.13181516 37.84773904 -34.09739972 35.08841173 -31.5 31.8125 C-31.0258667 31.21171631 -30.5517334 30.61093262 -30.06323242 29.99194336 C-21.15620053 19.00496885 -10.729016 9.18372145 0 0 Z " fill="#D0DDEF" transform="translate(284,378)"/>
<path d="M0 0 C3.41630371 1.60803876 5.52158303 3.36787576 8.125 6.125 C12.07058305 10.18145067 16.22261586 13.67501485 20.73828125 17.078125 C26.71703155 22.15851385 28.68856647 27.43997144 30 35 C30.7 45.6 30.7 45.6 29 49 C28.34 49 27.68 49 27 49 C26.92523438 48.34515625 26.85046875 47.6903125 26.7734375 47.015625 C25.64033439 39.15055638 22.83897573 32.91739966 19 26 C20.25330833 29.85025353 21.63499112 33.61134795 23.125 37.375 C24.90592603 42.19669232 25.38518261 45.89633045 25 51 C23.68 51.66 22.36 52.32 21 53 C20.85304688 52.26136719 20.70609375 51.52273438 20.5546875 50.76171875 C18.86906532 43.137669 16.38355717 36.50817819 12 30 C11.34 29.67 10.68 29.34 10 29 C10.55429687 29.9178125 11.10859375 30.835625 11.6796875 31.78125 C20 45.78456494 20 45.78456494 20 55 C18.02 55.495 18.02 55.495 16 56 C15.773125 55.05125 15.54625 54.1025 15.3125 53.125 C13.40414653 46.41850066 9.901867 39.7598989 6 34 C5.34 33.67 4.68 33.34 4 33 C4.55429687 33.85722656 5.10859375 34.71445312 5.6796875 35.59765625 C6.41191138 36.75231699 7.14365672 37.9072813 7.875 39.0625 C8.23980469 39.62388672 8.60460937 40.18527344 8.98046875 40.76367188 C12.36713105 46.15154372 14.39210154 51.53032455 14 58 C12.02 58.495 12.02 58.495 10 59 C9.56300781 57.948125 9.56300781 57.948125 9.1171875 56.875 C6.66385128 51.19683819 4.08005927 46.33629347 0.13671875 41.55859375 C-1 40 -1 40 -1 38 C-1.99 38 -2.98 38 -4 38 C-3.64011184 42.26183345 -3.28060925 46.18935105 -1.875 50.25 C-0.90240344 53.30673206 -1.10610461 54.96075566 -2 58 C-2.99 58 -3.98 58 -5 58 C-5.81498562 56.3970947 -6.62689927 54.79262722 -7.4375 53.1875 C-7.88996094 52.29417969 -8.34242188 51.40085937 -8.80859375 50.48046875 C-10.41193035 47.14237452 -11.11329093 44.56435776 -11.10546875 40.90234375 C-11.17741734 28.61208416 -11.17741734 28.61208416 -16.8203125 17.91015625 C-18 16 -18 16 -17.81225586 14.0690918 C-16.76616419 11.40434069 -15.53695237 10.58814532 -13.18359375 8.984375 C-12.41982422 8.45585937 -11.65605469 7.92734375 -10.86914062 7.3828125 C-10.06669922 6.84398437 -9.26425781 6.30515625 -8.4375 5.75 C-7.63119141 5.19570313 -6.82488281 4.64140625 -5.99414062 4.0703125 C-4.00270077 2.70340704 -2.00475077 1.34727363 0 0 Z " fill="#BBCBDE" transform="translate(387,292)"/>
<path d="M0 0 C0.9900976 9.94498029 -1.91071101 18.58107244 -8.1875 26.375 C-14.7890665 33.27859896 -23.06035788 37.44234801 -32.578125 38.3359375 C-44.67213776 38.46459721 -53.24662082 36.55885965 -62 28 C-61 26 -61 26 -57.88671875 24.80859375 C-56.48820515 24.34782463 -55.08834922 23.89111869 -53.6875 23.4375 C-43.46919792 19.97660267 -33.76450236 15.56478916 -24 11 C-23.1126416 10.58717773 -22.2252832 10.17435547 -21.31103516 9.74902344 C-18.68413603 8.52519749 -16.05999144 7.29574031 -13.4375 6.0625 C-12.63393066 5.68504639 -11.83036133 5.30759277 -11.00244141 4.91870117 C-10.25784668 4.56525635 -9.51325195 4.21181152 -8.74609375 3.84765625 C-8.09310303 3.53836182 -7.4401123 3.22906738 -6.76733398 2.91040039 C-1.11745776 0 -1.11745776 0 0 0 Z " fill="#E8F2FE" transform="translate(461,129)"/>
<path d="M0 0 C6.95511802 0.0287433 13.91024038 0.05636887 20.86536305 0.08396006 C33.25685743 0.13314507 45.64834836 0.1831468 58.03983722 0.23370296 C70.03820784 0.28265339 82.03658001 0.33119376 94.03495441 0.37921077 C95.15447772 0.38369126 95.15447772 0.38369126 96.29661766 0.38826227 C100.04285191 0.4032528 103.7890862 0.41823557 107.5353205 0.43321449 C138.34811027 0.55642606 169.16089441 0.6809944 199.97367511 0.80645686 C199.97367511 1.46645686 199.97367511 2.12645686 199.97367511 2.80645686 C44.21367511 2.80645686 -111.54632489 2.80645686 -272.02632489 2.80645686 C-272.02632489 2.14645686 -272.02632489 1.48645686 -272.02632489 0.80645686 C-250.54242794 0.67432439 -229.05852129 0.54387971 -207.57460275 0.41530544 C-197.59341744 0.35553426 -187.61223567 0.29526341 -177.63106122 0.23370296 C-168.90508695 0.17988554 -160.17910697 0.12712077 -151.45311948 0.07548982 C-146.85678835 0.04826038 -142.26046107 0.02059309 -137.66414037 -0.00834721 C-91.77516998 -0.29632839 -45.88923913 -0.18988607 0 0 Z " fill="#9BA9B9" transform="translate(283.02632489055395,468.19354313611984)"/>
<path d="M0 0 C0.33 0 0.66 0 1 0 C1.11214844 1.54880859 1.11214844 1.54880859 1.2265625 3.12890625 C2.00881908 12.31136225 3.54192213 21.07979294 5.875 30 C6.11943848 30.94174072 6.36387695 31.88348145 6.61572266 32.85375977 C8.12421712 38.41676195 9.97651944 43.7001396 12.23486328 49.00390625 C13 51 13 51 13 53 C13.66 53 14.32 53 15 53 C15.24363281 52.42765625 15.48726563 51.8553125 15.73828125 51.265625 C17.22517298 48.59566462 18.98083908 46.86170993 21.1875 44.75 C24.78970206 41.23452833 28.14989726 37.61492161 31.42578125 33.796875 C33.51337511 31.41401353 35.72636599 29.20473601 38 27 C38.66 27.33 39.32 27.66 40 28 C39.57291748 28.45213867 39.14583496 28.90427734 38.70581055 29.37011719 C25.73721308 43.07805992 25.73721308 43.07805992 13 57 C12.33025146 57.73234863 12.33025146 57.73234863 11.64697266 58.47949219 C-4.38736986 76.08828096 -14.47376762 97.84799639 -25 119 C-24.29117676 119.26659424 -23.58235352 119.53318848 -22.85205078 119.80786133 C-19.88600424 121.04764949 -17.16803576 122.49753718 -14.3671875 124.07421875 C-13.31402344 124.65880859 -12.26085937 125.24339844 -11.17578125 125.84570312 C-8.9643093 127.0796783 -6.7559929 128.31932481 -4.55078125 129.56445312 C-2.97490234 130.43553711 -2.97490234 130.43553711 -1.3671875 131.32421875 C-0.40925293 131.86135498 0.54868164 132.39849121 1.53564453 132.9519043 C4.06157912 134.34741504 4.06157912 134.34741504 7 133 C8.75200564 130.89172214 8.75200564 130.89172214 10.5 128.25 C19.5891268 115.40158362 29.93111282 104.14622759 42.2109375 94.28515625 C45.74492824 91.38965964 49.09971509 88.32206111 52.47265625 85.2421875 C55.06264938 82.94441926 57.73037001 80.78302419 60.4375 78.625 C67.12960205 73.21030774 74.2053582 67.1919627 79 60 C79.99 60.33 80.98 60.66 82 61 C61.42929794 81.96367653 61.42929794 81.96367653 52.80078125 88.5390625 C50.8834249 89.8891187 50.8834249 89.8891187 50 92 C50.58193115 92.27851807 51.1638623 92.55703613 51.76342773 92.84399414 C55.40517547 94.72628598 58.69317162 97.11142001 62.0625 99.4375 C62.78244141 99.92798828 63.50238281 100.41847656 64.24414062 100.92382812 C64.93830078 101.40142578 65.63246094 101.87902344 66.34765625 102.37109375 C67.29137085 103.0196936 67.29137085 103.0196936 68.25415039 103.68139648 C69.99999236 104.99999423 71.49307135 106.41727652 73 108 C69.44383075 108 68.54989275 107.24083594 65.69140625 105.2265625 C64.86189453 104.6490625 64.03238281 104.0715625 63.17773438 103.4765625 C61.88319336 102.56003906 61.88319336 102.56003906 60.5625 101.625 C58.85703014 100.42746077 57.15005212 99.23206583 55.44140625 98.0390625 C54.68545166 97.50490723 53.92949707 96.97075195 53.15063477 96.42041016 C51.15405018 95.10174412 49.1628378 94.01719289 47 93 C41.99986224 97.67638163 37.01395761 102.3674022 32.04199219 107.07373047 C30.46653876 108.55990066 28.88007141 110.0344009 27.2890625 111.50390625 C22.52917048 116.02491893 18.4533856 121.00858208 14.4375 126.1875 C13.89955811 126.86554688 13.36161621 127.54359375 12.80737305 128.2421875 C9.62196977 132.46794483 8.82485082 134.62146072 9 140 C7.28515625 142.8671875 7.28515625 142.8671875 5.0625 145.875 C1.11167974 151.65565603 0.30117402 156.25823408 0.22851562 163.16821289 C0.12024498 170.58745894 -1.89608882 176.84413323 -6 183 C-6.66 183 -7.32 183 -8 183 C-6 178 -6 178 -4.96484375 175.91015625 C-3.86294192 172.58660619 -3.73086437 169.6845399 -3.56982422 166.20800781 C-2.98199564 154.7334204 0.23956944 147.18083162 7 138 C6.28972656 137.73050537 5.57945312 137.46101074 4.84765625 137.18334961 C1.92902862 135.97050769 -0.78615407 134.57569022 -3.5625 133.06640625 C-4.60664063 132.49986328 -5.65078125 131.93332031 -6.7265625 131.34960938 C-7.80679688 130.75986328 -8.88703125 130.17011719 -10 129.5625 C-11.62035156 128.68368164 -11.62035156 128.68368164 -13.2734375 127.78710938 C-17.90185445 125.27005053 -22.49719634 122.73712849 -27 120 C-27.4846875 120.98097656 -27.969375 121.96195312 -28.46875 122.97265625 C-30.62620415 127.32505243 -32.80807258 131.66487549 -35 136 C-35.35755371 136.70930664 -35.71510742 137.41861328 -36.08349609 138.14941406 C-37.10705067 140.16805161 -38.14482512 142.17868378 -39.1875 144.1875 C-39.49558594 144.79795166 -39.80367187 145.40840332 -40.12109375 146.03735352 C-44.98444974 155.29911012 -51.10488092 157.49480212 -60.625 160.625 C-62.89063847 161.38021282 -65.15379848 162.1429136 -67.4140625 162.9140625 C-68.4138916 163.2435791 -69.4137207 163.5730957 -70.44384766 163.91259766 C-72.98445269 164.99338608 -74.32907559 165.82693608 -76 168 C-76.57775884 170.73230305 -76.57775884 170.73230305 -76.6875 173.6875 C-76.75324219 174.68136719 -76.81898438 175.67523438 -76.88671875 176.69921875 C-76.92410156 177.45847656 -76.96148437 178.21773437 -77 179 C-75.80890625 179.04898438 -74.6178125 179.09796875 -73.390625 179.1484375 C-58.23832558 179.80525456 -43.12332541 180.86612195 -28 182 C-28 182.33 -28 182.66 -28 183 C-51.85284467 183.18988792 -51.85284467 183.18988792 -63.6875 182.5625 C-64.44522705 182.52326416 -65.2029541 182.48402832 -65.98364258 182.44360352 C-70.04702674 182.203551 -73.999309 181.74973579 -78 181 C-78.94359364 178.16921909 -79.25819881 176.0809686 -79.375 173.125 C-79.42398438 172.28195312 -79.47296875 171.43890625 -79.5234375 170.5703125 C-78.75100444 166.77732031 -76.97317763 165.4127257 -74 163 C-70.6171875 161.33984375 -70.6171875 161.33984375 -66.875 159.9375 C-66.21701416 159.68202393 -65.55902832 159.42654785 -64.88110352 159.16333008 C-61.87059447 158.00600454 -58.87933042 156.96422433 -55.78515625 156.046875 C-48.25340368 153.77391812 -45.81529299 150.72246099 -42 144 C-39.59478404 139.36525522 -37.34503162 134.66287101 -35.125 129.9375 C-34.52668181 128.67743022 -33.92772749 127.41766228 -33.328125 126.15820312 C-31.8791599 123.1083653 -30.4366412 120.05565725 -29 117 C-28.01 117 -27.02 117 -26 117 C-25.76152344 116.20078125 -25.52304688 115.4015625 -25.27734375 114.578125 C-18.25802135 94.91543594 -5.82655561 72.43189236 9.28515625 57.78515625 C11.25256938 56.14963688 11.25256938 56.14963688 11 53.8125 C10.1929712 51.54273151 9.29319919 49.5340803 8.25 47.375 C1.83382786 33.37182138 -2.54725263 15.24909347 0 0 Z " fill="#676E78" transform="translate(237,286)"/>
<path d="M0 0 C0.66 0.33 1.32 0.66 2 1 C2.50201025 3.61106549 2.89881382 6.18025241 3.25 8.8125 C4.57125913 17.75689725 6.96420504 26.16549634 9.6953125 34.76953125 C11.66315312 41.06811201 12.20903747 46.73289425 12.25 53.3125 C12.270625 54.12912109 12.29125 54.94574219 12.3125 55.78710938 C12.33956758 60.03333635 12.03070754 63.40026938 10.421875 67.35546875 C8.88144092 71.29198972 8.88144092 71.29198972 10 75 C11.55980384 77.11157587 11.55980384 77.11157587 13.625 79.25 C14.43066406 80.11882812 15.23632812 80.98765625 16.06640625 81.8828125 C16.52547363 82.37040039 16.98454102 82.85798828 17.45751953 83.36035156 C19.19707437 85.209489 20.9247662 87.0693569 22.65234375 88.9296875 C25.85699151 92.37436112 29.08078723 95.80026313 32.31591797 99.21630859 C33.74131081 100.72600997 35.15516467 102.24659323 36.56640625 103.76953125 C37.24574219 104.48496094 37.92507813 105.20039063 38.625 105.9375 C39.17414063 106.52402344 39.72328125 107.11054688 40.2890625 107.71484375 C41.96780925 109.18407355 41.96780925 109.18407355 44.37109375 109.37890625 C48.09754594 110.25930134 49.74572007 112.31195347 52.4375 115 C57.32475808 119.73995811 62.40877642 123.47652228 68.27905273 126.91796875 C72.94412177 129.71121338 76.13161534 132.39098653 77.87890625 137.640625 C78.05543367 142.53783733 77.0293083 146.9919937 75.9375 151.75 C75.59187012 153.27113403 75.59187012 153.27113403 75.23925781 154.82299805 C68.52454098 183.53179241 68.52454098 183.53179241 58 192 C57.49629883 192.44802979 56.99259766 192.89605957 56.47363281 193.35766602 C49.90567584 198.42664859 42.37073479 197.5574207 34.5 197.3125 C33.09118556 197.28737733 31.6823278 197.26457117 30.2734375 197.24414062 C26.84784159 197.18548316 23.4244877 197.10343481 20 197 C19.47148845 187.96093009 19.47148845 187.96093009 21.4609375 184.34375 C22.09257812 183.7353125 22.72421875 183.126875 23.375 182.5 C24.00148438 181.8709375 24.62796875 181.241875 25.2734375 180.59375 C26.12808594 179.80484375 26.12808594 179.80484375 27 179 C29.28345572 176.71654428 29.37784669 175.92324771 29.8515625 172.82421875 C29.98046875 171.99599609 30.109375 171.16777344 30.2421875 170.31445312 C30.36851562 169.44755859 30.49484375 168.58066406 30.625 167.6875 C30.7590625 166.83220703 30.893125 165.97691406 31.03125 165.09570312 C32.03713326 159.06938929 32.03713326 159.06938929 32 153 C30.55887195 151.23368403 30.55887195 151.23368403 28.5 149.88671875 C27.778125 149.36142578 27.05625 148.83613281 26.3125 148.29492188 C25.1678125 147.49924805 25.1678125 147.49924805 24 146.6875 C23.236875 146.13771484 22.47375 145.58792969 21.6875 145.02148438 C19.80162019 143.66600826 17.90619987 142.32667202 16 141 C16.33 139.68 16.66 138.36 17 137 C16.34644531 136.7834375 15.69289063 136.566875 15.01953125 136.34375 C10.91023991 134.51503562 7.37827591 132.05286913 3.6875 129.5 C2.94693359 129.00113281 2.20636719 128.50226563 1.44335938 127.98828125 C0.74404297 127.50746094 0.04472656 127.02664063 -0.67578125 126.53125 C-1.31427002 126.09361328 -1.95275879 125.65597656 -2.6105957 125.20507812 C-3.29835083 124.60856445 -3.29835083 124.60856445 -4 124 C-4 123.34 -4 122.68 -4 122 C1.92390035 123.93145061 6.80651698 127.80598465 11.84960938 131.36328125 C12.94692383 132.10384766 12.94692383 132.10384766 14.06640625 132.859375 C14.72584229 133.31795898 15.38527832 133.77654297 16.06469727 134.24902344 C18.00018948 135.23296162 18.00018948 135.23296162 20.02294922 134.35595703 C22.16182227 132.88901446 23.8026568 131.34696431 25.56640625 129.4453125 C26.5419043 128.39923828 26.5419043 128.39923828 27.53710938 127.33203125 C28.20548828 126.60371094 28.87386719 125.87539063 29.5625 125.125 C30.23474609 124.40441406 30.90699219 123.68382812 31.59960938 122.94140625 C34.5776709 119.72971328 37.41541128 116.5413529 40 113 C38.44234073 109.24689118 36.1220056 106.90582087 33.23828125 104.078125 C32.76939987 103.61444519 32.30051849 103.15076538 31.81742859 102.67303467 C30.32048402 101.19382975 28.81704251 99.72147299 27.3125 98.25 C15.57259397 86.7305887 15.57259397 86.7305887 10.42651367 80.64746094 C9.01097774 78.95714024 9.01097774 78.95714024 7.3137207 77.40722656 C6 76 6 76 6 74 C5.34 73.67 4.68 73.34 4 73 C4.41572266 72.20335937 4.41572266 72.20335937 4.83984375 71.390625 C5.20207031 70.68421875 5.56429688 69.9778125 5.9375 69.25 C6.47697266 68.20585937 6.47697266 68.20585937 7.02734375 67.140625 C12.12026326 55.93211138 8.76388794 40.23871579 4.98046875 28.9609375 C4.29837838 27.18801346 3.6110854 25.41707999 2.91796875 23.6484375 C0.26166098 15.98470701 -0.26820665 8.0461995 0 0 Z M41.58984375 113.3984375 C40.77193359 114.37683594 40.77193359 114.37683594 39.9375 115.375 C37.1905113 118.60641617 34.40774536 121.79197788 31.5625 124.9375 C27.35151662 129.60431148 23.16970591 134.29629906 19 139 C21.4282926 141.59017877 23.56186507 143.72616567 26.59375 145.62109375 C29.55732594 147.55657523 31.78263035 149.23046183 34 152 C34.74546971 156.85738596 33.9301952 161.20949471 33 166 C32.74476563 167.71509766 32.74476563 167.71509766 32.484375 169.46484375 C31.88862565 173.42849869 31.26864438 177.19406687 30 181 C29.401875 181.28875 28.80375 181.5775 28.1875 181.875 C25.15002502 183.43712999 23.80179947 185.10425085 22 188 C21.93060103 190.33230106 21.9232691 192.66792864 22 195 C26.20820145 195.08742801 30.41616776 195.14053641 34.625 195.1875 C35.81480469 195.21263672 37.00460937 195.23777344 38.23046875 195.26367188 C46.55752286 195.41914324 46.55752286 195.41914324 54 192 C54.64066406 191.56300781 55.28132813 191.12601562 55.94140625 190.67578125 C65.11870072 182.95800831 67.89157338 173.19590467 71 162 C71.20044922 161.29117676 71.40089844 160.58235352 71.60742188 159.85205078 C75.32651863 148.52122565 75.32651863 148.52122565 75 137 C71.5901401 131.12806873 66.64301397 127.99244926 60.8359375 124.78515625 C56.63295125 122.13947482 52.99695747 118.89921771 49.29052734 115.60620117 C45.65442626 111.77156503 45.65442626 111.77156503 41.58984375 113.3984375 Z " fill="#585F68" transform="translate(313,272)"/>
<path d="M0 0 C8.42518017 2.5530849 13.20200555 9.00271445 17.5546875 16.29296875 C22.19381103 24.98192173 22.46526726 36.39313624 20.34765625 45.94140625 C16.49164557 56.51647416 8.46680478 65.23801107 -1.55078125 70.28515625 C-6.34325078 72.31413804 -10.82001951 73.54956691 -16 74 C-15.29875 73.319375 -14.5975 72.63875 -13.875 71.9375 C-12.91434621 70.96060981 -11.95617649 69.98127298 -11 69 C-10.51917969 68.52691406 -10.03835938 68.05382812 -9.54296875 67.56640625 C-5.91019499 63.72275908 -4.16890975 60.06551694 -2.25 55.125 C-0.76953125 51.703125 -0.76953125 51.703125 1 49 C3.73543921 47.92520585 5.73777451 47.86621044 8.66015625 47.9453125 C11.89914645 48.02101511 13.58661119 47.11171521 16 45 C18.5248023 40.55153881 18.59893209 36.32174264 17.3359375 31.42578125 C16.19396093 28.77092833 16.19396093 28.77092833 13.3984375 27.85546875 C12.40070313 27.63503906 11.40296875 27.41460937 10.375 27.1875 C9.37210937 26.95417969 8.36921875 26.72085938 7.3359375 26.48046875 C6.17964844 26.24263672 6.17964844 26.24263672 5 26 C4.80664062 24.7934375 4.61328125 23.586875 4.4140625 22.34375 C4.15121866 20.72913784 3.88818783 19.11455612 3.625 17.5 C3.49867188 16.70851562 3.37234375 15.91703125 3.2421875 15.1015625 C2.40359674 9.98615885 1.32215015 5.01267362 0 0 Z " fill="#F9F9F9" transform="translate(292,141)"/>
<path d="M0 0 C3.88067747 0.67653457 6.82681246 2.50241715 10.1875 4.5 C11.25355469 5.1290625 12.31960937 5.758125 13.41796875 6.40625 C16 8 16 8 17 9 C17.95372113 17.89618566 16.28118317 23.75376296 10.875 30.75 C8.10825157 35.54569729 7.66904667 40.55959417 7 46 C3.41668375 46.02907084 -0.16660208 46.04682263 -3.75 46.0625 C-4.76578125 46.07087891 -5.7815625 46.07925781 -6.828125 46.08789062 C-7.8078125 46.09111328 -8.7875 46.09433594 -9.796875 46.09765625 C-10.69760742 46.10289307 -11.59833984 46.10812988 -12.52636719 46.11352539 C-14.83389804 46.00762312 -16.79134405 45.65132813 -19 45 C-19.09945415 38.88909517 -19.0712828 33.02596573 -18 27 C-13.06085498 28.4297525 -8.70573538 30.59972055 -4.171875 32.9765625 C-2.09862257 34.14208903 -2.09862257 34.14208903 0 34 C1.98 30.37 3.96 26.74 6 23 C6.66 23 7.32 23 8 23 C7.67 22.01 7.34 21.02 7 20 C7.07974744 18.35280287 7.18639594 16.70679797 7.3125 15.0625 C7.43301466 12.42293489 7.43301466 12.42293489 7 10 C4.22572092 7.34289975 4.22572092 7.34289975 1 6 C0 5 0 5 -0.0625 2.4375 C-0.041875 1.633125 -0.02125 0.82875 0 0 Z " fill="#B9C9DD" transform="translate(187,130)"/>
<path d="M0 0 C3.32315453 1.39255999 6.63119633 2.81794179 9.9375 4.25 C10.88302734 4.64574219 11.82855469 5.04148437 12.80273438 5.44921875 C13.70185547 5.84238281 14.60097656 6.23554687 15.52734375 6.640625 C16.35999756 6.99672852 17.19265137 7.35283203 18.05053711 7.71972656 C20 9 20 9 20.828125 11.01367188 C21.05447772 13.62958915 20.31846569 14.96642601 19.0625 17.25 C18.49208984 18.30960938 18.49208984 18.30960938 17.91015625 19.390625 C17.60980469 19.92171875 17.30945313 20.4528125 17 21 C14.17669994 19.92050292 11.50895232 18.74966197 8.8125 17.375 C6.22230854 15.85359662 6.22230854 15.85359662 4 16 C3.57643029 20.04179393 3.57643029 20.04179393 4 24 C6.84730711 26.56680314 6.84730711 26.56680314 10 28 C9.81045578 35.94362584 7.62115114 41.97149263 4 49 C-0.74121855 48.30001695 -4.87799046 46.56290337 -9.25 44.6875 C-9.9821875 44.39166016 -10.714375 44.09582031 -11.46875 43.79101562 C-13.578125 42.88671875 -13.578125 42.88671875 -17 41 C-17.77636719 39.00708008 -17.77636719 39.00708008 -18 37 C-17.67 36.34 -17.34 35.68 -17 35 C-14.03 35.33 -11.06 35.66 -8 36 C-3.98852773 30.15471184 -1.43272579 24.32248153 0.984375 17.66015625 C2 15 2 15 3 14 C3.04080783 12.00041636 3.04254356 9.99954746 3 8 C1.35 7.34 -0.3 6.68 -2 6 C-1.125 1.125 -1.125 1.125 0 0 Z " fill="#F9F9F9" transform="translate(183,113)"/>
<path d="M0 0 C0.74636719 -0.01417969 1.49273437 -0.02835937 2.26171875 -0.04296875 C4.3125 0.1875 4.3125 0.1875 7.3125 2.1875 C6.68413434 7.68569956 4.06072295 10.72079443 -0.11328125 14.22265625 C-21.92697533 29.54242246 -47.50458695 40.8648878 -72.5703125 49.69921875 C-76.06247732 50.93506679 -79.43129266 52.35849644 -82.8125 53.875 C-92.84507196 58.12442038 -105.73084538 62.0242881 -116.6875 60.1875 C-118.6875 58.1875 -118.6875 58.1875 -118.8125 55.5 C-116.1981604 47.8022223 -107.86732584 43.86493165 -101.3125 39.6875 C-100.59827881 39.22956055 -99.88405762 38.77162109 -99.14819336 38.29980469 C-97.36740946 37.19602881 -95.5309689 36.18305758 -93.6875 35.1875 C-93.0275 35.5175 -92.3675 35.8475 -91.6875 36.1875 C-93.04977095 40.27431286 -94.98427476 40.76193282 -98.6875 42.875 C-108.60993416 48.57293593 -108.60993416 48.57293593 -115.6875 57.1875 C-92.28193546 55.75377476 -69.83106042 46.79115611 -48.6875 37.1875 C-47.59501953 36.69137207 -46.50253906 36.19524414 -45.37695312 35.68408203 C-42.01278019 34.14192734 -38.66029841 32.5773615 -35.3125 31 C-34.29655762 30.52530273 -33.28061523 30.05060547 -32.23388672 29.56152344 C-26.38101481 26.74523521 -21.11668486 23.57352675 -15.86230469 19.75610352 C-13.32823513 17.92837598 -10.69039381 16.33621994 -8 14.75 C-2.93659446 11.58537154 0.71010501 7.92102242 4.3125 3.1875 C-6.04011645 4.30352674 -15.69297225 6.26711317 -25.6875 9.1875 C-26.1825 7.7025 -26.1825 7.7025 -26.6875 6.1875 C-24.14736091 5.3699493 -21.60556769 4.55834814 -19.0625 3.75 C-18.34964844 3.51990234 -17.63679688 3.28980469 -16.90234375 3.05273438 C-11.30256762 1.28032817 -5.90727374 0.05154689 0 0 Z " fill="#AEB9C9" transform="translate(481.6875,102.8125)"/>
<path d="M0 0 C2.875 0.6875 2.875 0.6875 3.875 1.6875 C4.3125 4.5 4.3125 4.5 3.875 7.6875 C2.98683594 8.19152344 2.09867188 8.69554688 1.18359375 9.21484375 C-3.64856045 12.20426972 -5.28998568 17.42323791 -7.5 22.4375 C-8.17482422 23.91283203 -8.17482422 23.91283203 -8.86328125 25.41796875 C-9.96583982 27.83421412 -11.0475169 30.2599689 -12.125 32.6875 C-8.825 34.6675 -5.525 36.6475 -2.125 38.6875 C-3.06889853 43.40699266 -4.38936339 47.23521478 -6.125 51.6875 C-5.39603516 52.25791016 -5.39603516 52.25791016 -4.65234375 52.83984375 C-2.0137578 56.03179044 -2.66828839 59.4943434 -2.76953125 63.4765625 C-3.43203717 69.46095664 -5.40221618 74.61002539 -9.25 79.25 C-11.93092938 82.73520819 -12.41723612 86.41297868 -13.125 90.6875 C-13.455 90.6875 -13.785 90.6875 -14.125 90.6875 C-14.92580287 83.58408192 -14.03924282 79.4659817 -9.6328125 73.79296875 C-5.64798528 68.22866338 -5.2447585 62.34048806 -6.125 55.6875 C-7.89623226 52.98648394 -7.89623226 52.98648394 -10.125 51.6875 C-9.691875 50.76517578 -9.691875 50.76517578 -9.25 49.82421875 C-8.87875 49.01597656 -8.5075 48.20773438 -8.125 47.375 C-7.75375 46.57449219 -7.3825 45.77398437 -7 44.94921875 C-5.94459333 42.62536041 -5.94459333 42.62536041 -6.125 39.6875 C-12.725 36.7175 -19.325 33.7475 -26.125 30.6875 C-26.455 32.6675 -26.785 34.6475 -27.125 36.6875 C-30.095 36.0275 -33.065 35.3675 -36.125 34.6875 C-36.7128125 36.5128125 -36.7128125 36.5128125 -37.3125 38.375 C-39.36777915 44.56059974 -41.75176756 50.61840361 -44.125 56.6875 C-44.785 56.6875 -45.445 56.6875 -46.125 56.6875 C-44.88891418 49.51820227 -42.45263428 38.01513428 -37.125 32.6875 C-34.78555264 32.97480055 -32.4510857 33.30686779 -30.125 33.6875 C-29.465 31.7075 -28.805 29.7275 -28.125 27.6875 C-23.53817608 28.23355047 -20.20139986 29.55795218 -16.125 31.6875 C-14.830826 29.12623936 -13.53959216 26.56356642 -12.25 24 C-11.88519531 23.27876953 -11.52039063 22.55753906 -11.14453125 21.81445312 C-7.93893117 15.43239479 -5.84949179 10.90524103 -6.34765625 3.67578125 C-6.27417969 3.01964844 -6.20070312 2.36351563 -6.125 1.6875 C-3.125 -0.3125 -3.125 -0.3125 0 0 Z " fill="#565D66" transform="translate(209.125,83.3125)"/>
<path d="M0 0 C0.495 1.485 0.495 1.485 1 3 C-3.5059945 1.77962649 -7.84797061 0.36468335 -12.203125 -1.31640625 C-21.26415441 -4.76353701 -31.23709819 -3.71438549 -40.1796875 -0.328125 C-51.7391314 5.11538044 -59.24328034 13.21243175 -64 25 C-66.88535657 36.37810422 -64.88811583 47.14963207 -59.25 57.25 C-53.21811426 66.75208173 -44.39191077 71.35371552 -34 75 C-34 75.33 -34 75.66 -34 76 C-38.02211073 76.40221107 -40.39439193 75.93082555 -43.8125 73.9375 C-48.36384636 71.42853731 -52.04437729 71.9446359 -57 73 C-56.67 72.01 -56.34 71.02 -56 70 C-55.01 70 -54.02 70 -53 70 C-53.90492188 68.948125 -53.90492188 68.948125 -54.828125 67.875 C-64.87782535 55.94503313 -69.09286969 45.81516236 -68.1953125 29.94335938 C-67.36905616 21.72210883 -63.34415084 15.08172129 -58 9 C-57.49855469 8.39414063 -56.99710938 7.78828125 -56.48046875 7.1640625 C-42.82213393 -8.05617436 -17.14694304 -10.82964824 0 0 Z " fill="#555C65" transform="translate(295,139)"/>
<path d="M0 0 C4.55833544 0.657575 7.94519187 1.77950983 12 4 C11.67 6.31 11.34 8.62 11 11 C7.51329166 9.8905928 4.22515763 8.73662334 1 7 C1 7.66 1 8.32 1 9 C1.94875 9.309375 2.8975 9.61875 3.875 9.9375 C7 11 7 11 9 12 C8.67 13.98 8.34 15.96 8 18 C4.51329166 16.8905928 1.22515763 15.73662334 -2 14 C-2 14.66 -2 15.32 -2 16 C0.97 16.99 3.94 17.98 7 19 C6 23 6 23 5 25 C1.51329166 23.8905928 -1.77484237 22.73662334 -5 21 C-5 21.66 -5 22.32 -5 23 C-4.05125 23.309375 -3.1025 23.61875 -2.125 23.9375 C1 25 1 25 3 26 C2.67 27.32 2.34 28.64 2 30 C-1.93774177 30.36630156 -3.56539771 30.30233203 -6.875 28 C-7.57625 27.34 -8.2775 26.68 -9 26 C-8.38443385 20.11792344 -6.17339219 15.03902565 -3.9375 9.625 C-3.56044922 8.69816406 -3.18339844 7.77132812 -2.79492188 6.81640625 C-1.86873604 4.54197521 -0.93697332 2.27000333 0 0 Z " fill="#B8C8DB" transform="translate(173,118)"/>
<path d="M0 0 C4.46551572 1.55359197 8.23079641 3.93485777 12.125 6.5625 C13.11741699 7.23176514 13.11741699 7.23176514 14.12988281 7.91455078 C27.86052053 17.29084258 46.2678479 32.08764049 53 48 C53.1546875 49.11375 53.1546875 49.11375 53.3125 50.25 C54.01331568 53.05326272 54.84845708 54.2827593 56.5078125 56.5859375 C59.45757803 61.21202934 59.62752139 64.99989838 59.5625 70.375 C59.69327665 77.72123597 60.58254749 83.39292514 64 90 C64.33 90.99 64.66 91.98 65 93 C65.99 92.67 66.98 92.34 68 92 C67.67 87.71 67.34 83.42 67 79 C67.66 79 68.32 79 69 79 C70.3157048 83.76942989 71.47543452 88.00793749 71 93 C69 95 69 95 66.625 95.5 C64 95 64 95 61.875 92.5 C58.16601235 85.57655639 56.68074711 80.0233791 56.6875 72.1875 C56.51930148 65.12678707 55.39018676 60.25554322 51.375 54.26171875 C50 52 50 52 49.6875 49.70703125 C47.7683738 42.15047185 40.34787317 35.93395224 35.125 30.4375 C34.45597656 29.72142578 33.78695312 29.00535156 33.09765625 28.26757812 C25.16634034 19.87016369 16.8353771 13.35673134 7.09570312 7.1875 C6.32291016 6.68734375 5.55011719 6.1871875 4.75390625 5.671875 C3.70698608 5.00816895 3.70698608 5.00816895 2.63891602 4.33105469 C1 3 1 3 0 0 Z " fill="#585F68" transform="translate(317,257)"/>
<path d="M0 0 C3.28870485 2.72721866 3.89723897 4.28067282 4.5 8.5 C3.9231981 12.53761333 2.85349783 14.14650217 0 17 C-3.10048928 18.55024464 -5.57894218 18.28992015 -9 18 C-11.875 16.5625 -11.875 16.5625 -14 14 C-14.97499943 10.94386143 -15.30759211 8.19554026 -15 5 C-11.07376486 -1.49859609 -6.96424883 -1.78126436 0 0 Z " fill="#FBFBFB" transform="translate(305,170)"/>
<path d="M0 0 C0.66 0 1.32 0 2 0 C1.98428955 0.55349121 1.9685791 1.10698242 1.95239258 1.67724609 C1.16161398 16.21298815 1.16161398 16.21298815 5 30 C5.99 30.99 5.99 30.99 7 32 C7.03511312 34.74174963 6.95354155 37.33835674 6.75 40.0625 C6.71003906 40.80822266 6.67007813 41.55394531 6.62890625 42.32226562 C6.50121312 44.22213231 6.25904739 46.11355005 6 48 C5.01 48.495 5.01 48.495 4 49 C3.34 49.99 2.68 50.98 2 52 C2 50.68 2 49.36 2 48 C-4.50657582 48.0937298 -11.01283007 48.20118343 -17.51904297 48.31738281 C-19.72407121 48.35524013 -21.92915219 48.39016084 -24.13427734 48.421875 C-38.2593372 48.62742385 -52.23047026 49.08792119 -66.19818115 51.3571167 C-68.12164556 51.65093503 -70.06132999 51.83385809 -72 52 C-72.66 51.34 -73.32 50.68 -74 50 C-71.12616189 49.51285687 -68.25121044 49.03527159 -65.375 48.5625 C-64.58609375 48.42779297 -63.7971875 48.29308594 -62.984375 48.15429688 C-48.07858787 45.72914897 -33.17802541 45.87300442 -18.125 45.9375 C-16.06901151 45.94252726 -14.01302183 45.94708799 -11.95703125 45.95117188 C-6.97132408 45.96207518 -1.9856756 45.97927153 3 46 C2.87372821 43.43429262 2.73832422 40.86961249 2.59765625 38.3046875 C2.56305298 37.58240967 2.52844971 36.86013184 2.49279785 36.1159668 C2.2711126 32.21029594 1.84603516 28.78060784 0.4375 25.125 C-2.12948615 17.83726371 -1.40904418 9.61451469 -1 2 C-0.67 1.34 -0.34 0.68 0 0 Z " fill="#737980" transform="translate(310,224)"/>
<path d="M0 0 C0.33 0 0.66 0 1 0 C1.19477739 1.62414378 1.38059458 3.24936423 1.5625 4.875 C1.66691406 5.77992188 1.77132812 6.68484375 1.87890625 7.6171875 C2 10 2 10 1 12 C1.81598451 14.48059292 2.69563386 16.84085195 3.6875 19.25 C3.94466797 19.90613281 4.20183594 20.56226563 4.46679688 21.23828125 C7.44892008 28.6093278 10.47464745 33.40244258 17.8125 36.765625 C21.72682233 38.28146551 25.67244228 39.59124422 29.6875 40.8125 C30.39994873 41.03172119 31.11239746 41.25094238 31.84643555 41.47680664 C36.38106231 42.78196625 40.28358723 43.21634921 45 43 C44.39671875 44.051875 43.7934375 45.10375 43.171875 46.1875 C40.34048731 51.85027538 39.37654374 57.8146372 38.25 64 C38.02957031 65.15628906 37.80914062 66.31257813 37.58203125 67.50390625 C37.04405735 70.33411678 36.51703133 73.16590233 36 76 C32.84292021 70.49346548 34.41287083 65.26957493 35.9296875 59.40625 C37.20293966 54.9080453 38.52159833 50.435205 40 46 C38.4840625 45.9071875 38.4840625 45.9071875 36.9375 45.8125 C26.34167721 44.45502804 13.68840544 40.56122955 6.5234375 32.296875 C2.67023116 26.67072096 -2 17.85799264 -2 11 C-8.27 11 -14.54 11 -21 11 C-21 10.67 -21 10.34 -21 10 C-10.605 9.505 -10.605 9.505 0 9 C0 6.03 0 3.06 0 0 Z " fill="#636971" transform="translate(194,167)"/>
<path d="M0 0 C2.04572877 1.94170866 3.35017698 3.56028318 4.875 6 C7.04964578 9.07008816 8.77393509 10.20774171 12 12 C12 12.66 12 13.32 12 14 C10.39125 15.0828125 10.39125 15.0828125 8.75 16.1875 C4.75378284 18.89487633 3.10733797 21.70103055 1 26 C0.608125 25.46375 0.21625 24.9275 -0.1875 24.375 C-4.6464011 18.05304644 -4.6464011 18.05304644 -11 14 C-11 13.34 -11 12.68 -11 12 C-10.113125 11.46375 -9.22625 10.9275 -8.3125 10.375 C-4.23412163 7.8369118 -2.26550465 4.13003503 0 0 Z " fill="#9BA9B9" transform="translate(84,103)"/>
<path d="M0 0 C2.08060438 1.87254394 3.37159155 3.59454647 4.875 6 C7.03442292 9.04859707 8.70051846 10.35025923 12 12 C10.90072095 15.29783715 10.21616406 15.83371996 7.5625 17.875 C4.58644834 20.31438661 3.0104628 22.18269609 2 26 C1.34 26 0.68 26 0 26 C-1.078125 24.390625 -1.078125 24.390625 -2.25 22.25 C-4.65799269 18.19594663 -6.91166638 16.28186063 -11 14 C-8.81864422 11.81864422 -6.63620292 9.66218843 -4.375 7.5625 C-2.0538221 5.05807121 -1.0127494 3.22238444 0 0 Z " fill="#9CA9BA" transform="translate(302,44)"/>
<path d="M0 0 C2 1 2 1 3.3125 3.8125 C5.42968895 7.81163469 7.97498871 9.98749436 12 12 C12 12.66 12 13.32 12 14 C11.113125 14.53625 10.22625 15.0725 9.3125 15.625 C5.23412163 18.1630882 3.26550465 21.86996497 1 26 C0.608125 25.46375 0.21625 24.9275 -0.1875 24.375 C-4.6464011 18.05304644 -4.6464011 18.05304644 -11 14 C-11 13.34 -11 12.68 -11 12 C-10.113125 11.46375 -9.22625 10.9275 -8.3125 10.375 C-4.23412163 7.8369118 -2.26550465 4.13003503 0 0 Z " fill="#9DAABA" transform="translate(427,227)"/>
<path d="M0 0 C10.93378113 -0.5834231 10.93378113 -0.5834231 16 3 C18.86828397 6.86062866 19.34456066 9.5483268 19.1875 14.3125 C19.16042969 15.38113281 19.13335937 16.44976562 19.10546875 17.55078125 C19.07066406 18.35902344 19.03585938 19.16726562 19 20 C12.12683139 18.08353985 7.65804578 14.3234809 3 9 C1.51427843 6.0551668 0.59719915 3.23865692 0 0 Z " fill="#FBFBFB" transform="translate(176,215)"/>
<path d="M0 0 C0.33 1.32 0.66 2.64 1 4 C2.216875 4.061875 3.43375 4.12375 4.6875 4.1875 C9.17383464 4.72840559 11.14764741 6.45616799 14 10 C15.75092616 13.50185232 14.9638165 17.29792337 14 21 C11.4375 24.0625 11.4375 24.0625 9 26 C8.34 25.34 7.68 24.68 7 24 C7.825 23.319375 8.65 22.63875 9.5 21.9375 C12.29923822 19.18005081 12.29923822 19.18005081 12.5 15.4375 C11.93835872 11.02888793 11.93835872 11.02888793 9 8 C5.93364101 7.0369624 3.2032697 6.69706381 0 7 C-3.28944376 8.62231551 -3.28944376 8.62231551 -5 12 C-5.74612519 16.99268876 -5.83723067 20.744154 -3 25 C-6.32957907 24.72253508 -7.78804723 24.18903896 -10.3125 21.9375 C-12.48372058 18.15796789 -12.99222551 15.26225565 -12 11 C-9.48283139 7.59441894 -7.77693219 6.25399706 -3.75 4.9375 C-2.8425 4.628125 -1.935 4.31875 -1 4 C-0.03122943 1.96756452 -0.03122943 1.96756452 0 0 Z " fill="#6F757C" transform="translate(296,163)"/>
<path d="M0 0 C0.33 0 0.66 0 1 0 C1.03738281 1.0415625 1.07476562 2.083125 1.11328125 3.15625 C1.50705048 12.23748617 2.52435151 20.90649035 4.37890625 29.8046875 C5 33 5 33 5 36 C5.72445312 35.96519531 6.44890625 35.93039063 7.1953125 35.89453125 C17.21294945 35.61403742 17.21294945 35.61403742 22 39 C26.46015803 43.94233727 27.12263353 46.51031176 27.0625 53.125 C27.05347656 54.40632813 27.04445312 55.68765625 27.03515625 57.0078125 C27.02355469 57.99523437 27.01195312 58.98265625 27 60 C25.23767095 56.93538763 24.74114943 54.5759388 24.5625 51.0625 C24.20849249 46.98841357 23.77802343 44.17488392 21 41 C16.54117511 38.29768189 11.09154967 38.37568716 6 38 C6.66 39.98 7.32 41.96 8 44 C7.01 44 6.02 44 5 44 C-0.09074745 28.6783329 -1.23588702 15.96632415 0 0 Z " fill="#676D75" transform="translate(170,177)"/>
<path d="M0 0 C0 0.66 0 1.32 0 2 C-0.64066406 2.1959375 -1.28132813 2.391875 -1.94140625 2.59375 C-9.6307013 5.25234382 -14.38415536 8.89502984 -18.12890625 16.203125 C-20.28102762 21.72336456 -20.05235017 26.25896093 -19 32 C-18.80806089 33.3535446 -18.62014312 34.70766971 -18.4375 36.0625 C-18.293125 37.031875 -18.14875 38.00125 -18 39 C-21 38 -21 38 -22.16015625 35.88671875 C-24.30605481 28.51081625 -24.20617374 19.55700553 -21.0625 12.5 C-17.44528461 6.35175854 -11.89992632 1.66970522 -5.0625 -0.5 C-2 -1 -2 -1 0 0 Z " fill="#515760" transform="translate(205,63)"/>
<path d="M0 0 C0.99 0.495 0.99 0.495 2 1 C2 5.29 2 9.58 2 14 C-0.28062828 10.57905758 -0.21925007 9.31812778 -0.125 5.3125 C-0.10695313 4.31863281 -0.08890625 3.32476562 -0.0703125 2.30078125 C-0.04710937 1.54152344 -0.02390625 0.78226563 0 0 Z M1 14 C-1.21122408 15.14656064 -3.329931 16.11509221 -5.6875 16.9375 C-6.8321875 17.4634375 -6.8321875 17.4634375 -8 18 C-9.23661471 21.70984413 -9.70369857 25.15211634 -9 29 C-6.66663334 32.00333267 -6.66663334 32.00333267 -4 34 C-3.67 33.67 -3.34 33.34 -3 33 C-3 32.01 -3 31.02 -3 30 C-2.34 30.639375 -1.68 31.27875 -1 31.9375 C2.85690912 34.58912502 5.37840033 34.68667121 10 35 C9.67 35.66 9.34 36.32 9 37 C5.7 37 2.4 37 -1 37 C-1.4125 38.36125 -1.825 39.7225 -2.25 41.125 C-3.63339319 45.3148942 -5.3760051 48.47117927 -8 52 C-8.66 51.67 -9.32 51.34 -10 51 C-9.66226562 50.41992188 -9.32453125 49.83984375 -8.9765625 49.2421875 C-6.50306326 44.90998941 -4.3632363 40.83329234 -3 36 C-3.5775 35.9175 -4.155 35.835 -4.75 35.75 C-7.64729825 34.78423392 -9.00270757 33.27278104 -11 31 C-12.60183927 27.79632147 -12.49374477 24.47623006 -12 21 C-8.50728342 15.45982887 -5.49248359 13.71144517 1 14 Z " fill="#606770" transform="translate(294,153)"/>
<path d="M0 0 C3 1 3 1 4.1640625 3.140625 C6.42228862 10.86502464 6.11792352 19.8692344 2.328125 27.03515625 C-1.68834962 32.97717606 -6.14521043 36.84201069 -13 39 C-15.9375 39.1875 -15.9375 39.1875 -18 39 C-18 38.34 -18 37.68 -18 37 C-17.19175781 36.63648438 -16.38351563 36.27296875 -15.55078125 35.8984375 C-7.41172144 32.06944676 -2.53767996 29.30425065 0.875 20.75 C2.40221897 15.66213006 1.88318629 11.16795148 1 6 C0.814375 4.80375 0.62875 3.6075 0.4375 2.375 C0.293125 1.59125 0.14875 0.8075 0 0 Z " fill="#535A63" transform="translate(229,75)"/>
<path d="M0 0 C0 0.66 0 1.32 0 2 C-10.4524579 7.74324564 -21.02411542 13.0573502 -31.9375 17.875 C-32.95384521 18.32657471 -33.97019043 18.77814941 -35.01733398 19.2434082 C-41.89623281 22.24012859 -48.85554863 24.71803157 -56 27 C-58.00077116 27.66434872 -60.00097872 28.33040434 -62 29 C-62.66 28.34 -63.32 27.68 -64 27 C-63.4644751 26.81526123 -62.9289502 26.63052246 -62.37719727 26.44018555 C-42.50518826 19.53064707 -22.96119914 11.69406806 -4.59765625 1.36328125 C-2 0 -2 0 0 0 Z " fill="#B6C2D0" transform="translate(461,127)"/>
<path d="M0 0 C4.8274799 1.41292095 8.7162359 3.42974154 13 6 C12.34 6.66 11.68 7.32 11 8 C7.37 6.02 3.74 4.04 0 2 C0.57220726 4.89064982 0.57220726 4.89064982 2 8 C3.03125 8.5775 4.0625 9.155 5.125 9.75 C8 12 8 12 8.35546875 14.29296875 C8.32680393 16.05715826 8.25637406 17.82115718 8.14453125 19.58203125 C7.98749533 22.20919976 8.32285259 24.4606972 9 27 C8.01 26.67 7.02 26.34 6 26 C3.03 31.445 3.03 31.445 0 37 C-5.75 35.25 -5.75 35.25 -8 33 C-4.37673261 31.7922442 -3.35853631 32.45688872 0 34 C0.30744141 33.06027344 0.30744141 33.06027344 0.62109375 32.1015625 C0.89050781 31.28429687 1.15992188 30.46703125 1.4375 29.625 C1.83775391 28.40683594 1.83775391 28.40683594 2.24609375 27.1640625 C3 25 3 25 4 23 C4.22622081 21.29636178 4.40888473 19.58671299 4.5625 17.875 C4.64628906 16.96492188 4.73007813 16.05484375 4.81640625 15.1171875 C4.87699219 14.41851562 4.93757812 13.71984375 5 13 C4.01 12.505 3.02 12.01 2 11.5 C-1 9 -1 9 -1.43359375 6.98828125 C-1.4375 4.8125 -1.4375 4.8125 -1 1 C-0.67 0.67 -0.34 0.34 0 0 Z " fill="#686F77" transform="translate(187,128)"/>
<path d="M0 0 C0.99 0.33 1.98 0.66 3 1 C5.57629238 6.6949621 5.76948197 12.12552138 3.9375 18.0625 C1.80534366 23.29135959 -2.21212743 26.35487916 -6.97265625 29.1640625 C-9 30 -9 30 -13 30 C-13 29.01 -13 28.02 -13 27 C-12.11248047 26.70609375 -12.11248047 26.70609375 -11.20703125 26.40625 C-5.8234848 24.36875771 -2.57623337 22.33655436 0.19921875 17.21484375 C2.22305853 11.6171991 1.17027183 5.70507518 0 0 Z " fill="#545A63" transform="translate(223,78)"/>
<path d="M0 0 C-1 3 -1 3 -2.70703125 3.9921875 C-3.74923828 4.42917969 -3.74923828 4.42917969 -4.8125 4.875 C-8.58525711 6.63967671 -10.71191734 8.43059106 -13 12 C-14.93703061 17.81109182 -14.21715636 24.06636277 -13 30 C-13.99 29.67 -14.98 29.34 -16 29 C-18.40224653 23.81620485 -19.06295143 18.38616862 -17.34765625 12.921875 C-15.04805705 7.75024419 -11.6906996 4.14527189 -7 1 C-4 0 -4 0 0 0 Z " fill="#525861" transform="translate(206,69)"/>
<path d="M0 0 C0 3 0 3 -1.3125 4.38671875 C-2.875 5.59114583 -4.4375 6.79557292 -6 8 C0.89039014 6.58747002 6.69073553 5.14757857 12.37890625 0.890625 C12.91386719 0.59671875 13.44882812 0.3028125 14 0 C14.99 0.33 15.98 0.66 17 1 C4.36323914 9.92150428 -5.95505191 11.50967829 -21 11 C-21 10.34 -21 9.68 -21 9 C-19.96552734 9.01353516 -19.96552734 9.01353516 -18.91015625 9.02734375 C-10.47083479 8.76108258 -5.88647059 5.88647059 0 0 Z " fill="#666C74" transform="translate(283,206)"/>
<path d="M0 0 C2.475 0.99 2.475 0.99 5 2 C5.2657967 6.68641548 4.51809884 9.84637777 2.625 14.125 C1.96371094 15.64480469 1.96371094 15.64480469 1.2890625 17.1953125 C0.23491686 19.48887786 -0.84985528 21.75345565 -2 24 C-2.66 24 -3.32 24 -4 24 C-3.34 22.02 -2.68 20.04 -2 18 C-2.7425 17.87625 -3.485 17.7525 -4.25 17.625 C-6.80141485 17.04513299 -8.7267573 16.26291261 -11 15 C-11 14.34 -11 13.68 -11 13 C-7.51329166 14.1094072 -4.22515763 15.26337666 -1 17 C-0.67 15.02 -0.34 13.04 0 11 C-0.94875 10.690625 -1.8975 10.38125 -2.875 10.0625 C-6 9 -6 9 -8 8 C-8 7.34 -8 6.68 -8 6 C-4.51329166 7.1094072 -1.22515763 8.26337666 2 10 C2.33 7.69 2.66 5.38 3 3 C1.68 2.34 0.36 1.68 -1 1 C-0.67 0.67 -0.34 0.34 0 0 Z " fill="#646C77" transform="translate(182,119)"/>
<path d="M0 0 C0.33 0 0.66 0 1 0 C1.07476562 1.03253906 1.14953125 2.06507813 1.2265625 3.12890625 C2.12354747 13.57999328 4.15378733 23.31904959 7.14306641 33.38110352 C7.41038574 34.31494873 7.67770508 35.24879395 7.953125 36.2109375 C8.20223633 37.03899902 8.45134766 37.86706055 8.70800781 38.72021484 C9.06020886 41.47009224 8.4495602 42.68615115 7 45 C-2.64214801 14.89210699 -2.64214801 14.89210699 0 0 Z " fill="#798089" transform="translate(237,286)"/>
<path d="M0 0 C0.556875 0.268125 1.11375 0.53625 1.6875 0.8125 C1.006875 1.451875 0.32625 2.09125 -0.375 2.75 C-2.76820147 6.53280233 -2.5618917 8.42567684 -1.875 12.71875 C-1.19186625 15.26152564 -0.1734026 16.9515974 1.6875 18.8125 C-1.64207907 18.53503508 -3.10054723 18.00153896 -5.625 15.75 C-7.79289549 11.97625601 -8.31434514 9.06820114 -7.3125 4.8125 C-3.56445211 -0.28900963 -3.56445211 -0.28900963 0 0 Z " fill="#F1F1F2" transform="translate(291.3125,169.1875)"/>
<path d="M0 0 C0 0.33 0 0.66 0 1 C-1.05276123 1.0501123 -2.10552246 1.10022461 -3.19018555 1.15185547 C-7.15847797 1.34257964 -11.12627527 1.54235157 -15.09399414 1.74462891 C-16.79960412 1.830367 -18.50533351 1.91376738 -20.21118164 1.99462891 C-29.48812045 2.43599868 -38.51012966 2.9998387 -47.63989258 4.79736328 C-48.41872803 4.8642334 -49.19756348 4.93110352 -50 5 C-50.66 4.34 -51.32 3.68 -52 3 C-34.75032197 -0.77828671 -17.55090437 -0.30631221 0 0 Z " fill="#5F666E" transform="translate(288,271)"/>
<path d="M0 0 C0.33 0 0.66 0 1 0 C1 4.62 1 9.24 1 14 C8.59 14.33 16.18 14.66 24 15 C24 15.33 24 15.66 24 16 C17.07 16 10.14 16 3 16 C3 19.63 3 23.26 3 27 C1.04261062 23.08522124 0.56445203 20.27370825 0 16 C-0.33 15.67 -0.66 15.34 -1 15 C-1.09927286 13.0437407 -1.12969729 11.08377091 -1.125 9.125 C-1.12757813 8.05507812 -1.13015625 6.98515625 -1.1328125 5.8828125 C-1 3 -1 3 0 0 Z " fill="#535A64" transform="translate(167,161)"/>
<path d="M0 0 C2.31 1.98 4.62 3.96 7 6 C6.01 7.485 6.01 7.485 5 9 C4.34 9 3.68 9 3 9 C2.34 10.65 1.68 12.3 1 14 C0.38125 13.195625 -0.2375 12.39125 -0.875 11.5625 C-2.74164041 8.96125481 -2.74164041 8.96125481 -5 8 C-3.62845496 5.04590299 -2.01136276 2.55991624 0 0 Z " fill="#9EAABB" transform="translate(330,89)"/>
<path d="M0 0 C2.31 1.98 4.62 3.96 7 6 C6.01 7.485 6.01 7.485 5 9 C4.34 9 3.68 9 3 9 C2.67 10.32 2.34 11.64 2 13 C0 13 0 13 -2.625 10.5 C-3.40875 9.675 -4.1925 8.85 -5 8 C-3.62845496 5.04590299 -2.01136276 2.55991624 0 0 Z " fill="#9BA7B7" transform="translate(104,197)"/>
<path d="M0 0 C3 1 3 1 4 3 C4.58118751 7.76383201 4.45088085 11.14488114 2.1875 15.4375 C0 18 0 18 -3 20 C-5.6875 20.125 -5.6875 20.125 -8 20 C-8 19.34 -8 18.68 -8 18 C-7.071875 17.649375 -6.14375 17.29875 -5.1875 16.9375 C-1.06243565 14.43010795 -0.28609915 12.61482635 1 8 C0.94140308 5.20688038 0.53293977 2.76159701 0 0 Z " fill="#515760" transform="translate(217,81)"/>
<path d="M0 0 C0 0.99 0 1.98 0 3 C-1.11375 3.515625 -2.2275 4.03125 -3.375 4.5625 C-6.48672419 6.34512742 -6.95443644 6.89748199 -8.5 10.375 C-8.99101158 13.93483399 -8.84693644 16.52756061 -8 20 C-8.99 20 -9.98 20 -11 20 C-12.72447196 16.55105608 -12.36671096 12.77843255 -12 9 C-10.37522535 5.26301831 -8.44378693 3.15236683 -5 1 C-2 0 -2 0 0 0 Z " fill="#50565F" transform="translate(207,75)"/>
<path d="M0 0 C0.33 0 0.66 0 1 0 C1.19477739 1.62414378 1.38059458 3.24936423 1.5625 4.875 C1.66691406 5.77992188 1.77132812 6.68484375 1.87890625 7.6171875 C2 10 2 10 1 12 C1.3191623 14.22624593 1.3191623 14.22624593 1.9375 16.625 C2.22947266 17.85089844 2.22947266 17.85089844 2.52734375 19.1015625 C2.68332031 19.72804687 2.83929688 20.35453125 3 21 C2.34 21.33 1.68 21.66 1 22 C0.01 18.37 -0.98 14.74 -2 11 C-8.27 11 -14.54 11 -21 11 C-21 10.67 -21 10.34 -21 10 C-10.605 9.505 -10.605 9.505 0 9 C0 6.03 0 3.06 0 0 Z " fill="#70767E" transform="translate(194,167)"/>
<path d="M0 0 C2 3 2 3 3.2265625 5.33984375 C6.63850875 11.67767686 9.24803114 14.43890837 16 17 C16 17.99 16 18.98 16 20 C9.75476186 18.47677119 5.21499702 15.29085271 1.6328125 9.96875 C-1.14965527 4.82598198 -1.14965527 4.82598198 -0.59375 1.7578125 C-0.3978125 1.17773438 -0.201875 0.59765625 0 0 Z " fill="#5A6068" transform="translate(197,187)"/>
<path d="M0 0 C0.99 0.33 1.98 0.66 3 1 C2.57589844 1.4125 2.15179688 1.825 1.71484375 2.25 C-2.75504701 6.65112321 -6.91109365 11.24608471 -11 16 C-12.31122788 17.50111215 -13.62369046 19.00114686 -14.9375 20.5 C-15.52402344 21.1703125 -16.11054688 21.840625 -16.71484375 22.53125 C-17.13894531 23.0159375 -17.56304687 23.500625 -18 24 C-18.66 23.34 -19.32 22.68 -20 22 C-19.25556641 21.27296875 -19.25556641 21.27296875 -18.49609375 20.53125 C-11.90563289 14.02832847 -5.8881933 7.137204 0 0 Z " fill="#697079" transform="translate(353,385)"/>
<path d="M0 0 C0.33 0 0.66 0 1 0 C2.87231852 10.99987129 2.40543778 20.39184333 -4 30 C-4.66 30 -5.32 30 -6 30 C-4 25 -4 25 -3 22.96875 C-1.5340657 18.61675754 -1.26801966 14.24588372 -0.875 9.6875 C-0.78863281 8.75615234 -0.70226562 7.82480469 -0.61328125 6.86523438 C-0.40209195 4.57735027 -0.19788734 2.28906654 0 0 Z " fill="#6C7580" transform="translate(235,439)"/>
<path d="M0 0 C1.43477901 2.86955801 1.30077827 4.80565863 1 8 C-0.71484375 11.18359375 -0.71484375 11.18359375 -2.9375 14.4375 C-6.09630084 19.06706525 -7.5527393 22.38439348 -8 28 C-8.33 28 -8.66 28 -9 28 C-10.23786913 18.87071514 -5.98117429 13.19379412 -1 6 C-1.66 6 -2.32 6 -3 6 C-1.125 1.125 -1.125 1.125 0 0 Z " fill="#606872" transform="translate(245,418)"/>
<path d="M0 0 C2.6427068 2.35679992 4.07178895 4.76914003 5.625 7.9375 C6.05039062 8.79214844 6.47578125 9.64679688 6.9140625 10.52734375 C8.92396484 15.10384801 9.27879869 18.98162352 9 24 C8.34 24.66 7.68 25.32 7 26 C6.91363281 25.26136719 6.82726562 24.52273438 6.73828125 23.76171875 C5.79576003 16.95654261 4.13685896 11.40520507 1.0234375 5.27734375 C0 3 0 3 0 0 Z " fill="#68717C" transform="translate(405,317)"/>
<path d="M0 0 C0.66 0.66 1.32 1.32 2 2 C1.828125 4.1796875 1.828125 4.1796875 1.25 6.875 C1.05148438 7.84824219 0.85296875 8.82148438 0.6484375 9.82421875 C0.43445313 10.87222656 0.22046875 11.92023438 0 13 C-0.38450185 15.22754739 -0.75981635 17.45670419 -1.125 19.6875 C-1.29257813 20.70199219 -1.46015625 21.71648437 -1.6328125 22.76171875 C-1.75398437 23.50035156 -1.87515625 24.23898438 -2 25 C-6.04076263 18.01057275 -2.53347495 9.63786331 -0.62109375 2.30859375 C-0.41613281 1.54675781 -0.21117187 0.78492188 0 0 Z " fill="#787D84" transform="translate(232,218)"/>
<path d="M0 0 C0.33 0 0.66 0 1 0 C1.33821197 2.85366354 1.6706978 5.70780596 2 8.5625 C2.09539062 9.36236328 2.19078125 10.16222656 2.2890625 10.98632812 C2.82714176 15.69452167 3.10176703 20.26147265 3 25 C-0.76175295 21.23824705 -0.54699397 15.12068838 -1 10 C-0.89281914 6.61737215 -0.55738373 3.33677014 0 0 Z " fill="#71777F" transform="translate(237,286)"/>
<path d="M0 0 C0.99 0.495 0.99 0.495 2 1 C3.65496186 7.6779163 4.56670458 14.26317029 3 21 C2.67 21 2.34 21 2 21 C0.65504172 13.90294338 -0.24091535 7.2274605 0 0 Z " fill="#5C636B" transform="translate(313,272)"/>
<path d="M0 0 C3.58468861 1.1948962 4.05530287 2.46222187 5.703125 5.72265625 C6.00734375 6.35042969 6.3115625 6.97820312 6.625 7.625 C6.93695313 8.22957031 7.24890625 8.83414062 7.5703125 9.45703125 C9.65183037 13.66492729 10.55553085 17.32706756 11 22 C10.34 22 9.68 22 9 22 C8.85304688 21.39414062 8.70609375 20.78828125 8.5546875 20.1640625 C6.93612595 14.11771187 4.61795157 9.27626616 1.20703125 4.03125 C0 2 0 2 0 0 Z " fill="#616974" transform="translate(397,321)"/>
<path d="M0 0 C4.00005032 1.33335011 4.53968236 3.08034416 6.625 6.6875 C7.23601562 7.72261719 7.84703125 8.75773437 8.4765625 9.82421875 C9.98448262 12.96765223 10.61760521 15.55327935 11 19 C10.34 19.33 9.68 19.66 9 20 C8.76925781 19.28714844 8.53851563 18.57429688 8.30078125 17.83984375 C6.22187594 11.7346001 3.91077903 7.10573928 0 2 C0 1.34 0 0.68 0 0 Z " fill="#646D77" transform="translate(391,325)"/>
<path d="M0 0 C0.99 0 1.98 0 3 0 C3.90413673 3.83724172 4.10576898 7.37502274 4.0625 11.3125 C4.05347656 12.38113281 4.04445313 13.44976562 4.03515625 14.55078125 C4.02355469 15.35902344 4.01195312 16.16726563 4 17 C3.34 17.33 2.68 17.66 2 18 C1.34 12.06 0.68 6.12 0 0 Z " fill="#61676F" transform="translate(321,311)"/>
<path d="M0 0 C-1.58667578 3.90285767 -4.13350481 6.33520982 -7.125 9.25 C-8.03507812 10.14203125 -8.94515625 11.0340625 -9.8828125 11.953125 C-10.58148438 12.62859375 -11.28015625 13.3040625 -12 14 C-12.66 13.34 -13.32 12.68 -14 12 C-12.04761147 9.99387601 -10.08862178 7.99507567 -8.125 6 C-7.29162109 5.14148438 -7.29162109 5.14148438 -6.44140625 4.265625 C-2.2265625 0 -2.2265625 0 0 0 Z " fill="#727983" transform="translate(273,387)"/>
<path d="M0 0 C1.35304209 4.05912626 0.15216503 5.77149591 -1.4375 9.6875 C-1.91058594 10.86699219 -2.38367188 12.04648438 -2.87109375 13.26171875 C-3.24363281 14.16535156 -3.61617187 15.06898438 -4 16 C-4.66 16 -5.32 16 -6 16 C-3.67123288 3.67123288 -3.67123288 3.67123288 0 0 Z " fill="#535A62" transform="translate(169,124)"/>
<path d="M0 0 C0.99 0.33 1.98 0.66 3 1 C-2.28 6.28 -7.56 11.56 -13 17 C-13.66 16.67 -14.32 16.34 -15 16 C-14.08476562 15.09636719 -13.16953125 14.19273437 -12.2265625 13.26171875 C-11.02590942 12.07044577 -9.82539585 10.87903217 -8.625 9.6875 C-8.02171875 9.09259766 -7.4184375 8.49769531 -6.796875 7.88476562 C-6.21679688 7.30791016 -5.63671875 6.73105469 -5.0390625 6.13671875 C-4.50490723 5.60780029 -3.97075195 5.07888184 -3.42041016 4.53393555 C-1.78498535 2.8489902 -1.78498535 2.8489902 0 0 Z " fill="#626971" transform="translate(316,346)"/>
<path d="M0 0 C3.44216672 2.6598561 3.99504674 5.90288286 5 10 C5.99 9.67 6.98 9.34 8 9 C6.55746343 12.36591866 4.66735273 14.51047079 2 17 C1.34 16.67 0.68 16.34 0 16 C0.515625 15.608125 1.03125 15.21625 1.5625 14.8125 C3.2770784 13.07326198 3.2770784 13.07326198 2.8125 10.625 C2.03227337 7.97364586 2.03227337 7.97364586 0.9375 5.375 C0 3 0 3 0 0 Z " fill="#626972" transform="translate(245,329)"/>
<path d="M0 0 C1 1 1 1 1.0625 4.0625 C1.041875 5.031875 1.02125 6.00125 1 7 C-0.98 7.99 -0.98 7.99 -3 9 C-2.67 7.02 -2.34 5.04 -2 3 C-5.58327753 1.99782936 -5.58327753 1.99782936 -9 3 C-8.67 2.01 -8.34 1.02 -8 0 C-5.11795733 -1.44102133 -3.08226581 -0.65580124 0 0 Z " fill="#4F555E" transform="translate(212,84)"/>
<path d="M0 0 C0.33 0 0.66 0 1 0 C1 1.65 1 3.3 1 5 C0.34 5 -0.32 5 -1 5 C-1.33 5.66 -1.66 6.32 -2 7 C-5.96 5.68 -9.92 4.36 -14 3 C-14 2.34 -14 1.68 -14 1 C-13.40832031 1.13277344 -12.81664062 1.26554688 -12.20703125 1.40234375 C-8.14553475 2.31005178 -4.08625829 3.2091113 0 4 C0 2.68 0 1.36 0 0 Z " fill="#656B73" transform="translate(227,243)"/>
<path d="M0 0 C0.33 0 0.66 0 1 0 C1.33 6.93 1.66 13.86 2 21 C1.01 20.34 0.02 19.68 -1 19 C-1.2487793 17.02880859 -1.2487793 17.02880859 -1.07421875 14.6484375 C-1.01943359 13.79765625 -0.96464844 12.946875 -0.90820312 12.0703125 C-0.83537109 11.18085938 -0.76253906 10.29140625 -0.6875 9.375 C-0.62626953 8.4778125 -0.56503906 7.580625 -0.50195312 6.65625 C-0.34843467 4.43613694 -0.18056839 2.21805021 0 0 Z " fill="#6C7279" transform="translate(170,177)"/>
<path d="M0 0 C0.825 0.639375 1.65 1.27875 2.5 1.9375 C6.23191406 4.46413081 9.55723303 4.69360228 14 5 C13.67 5.66 13.34 6.32 13 7 C9.62112287 7.28527105 6.36826645 7.45018698 3 7 C0.81817659 4.56149148 0 3.2678851 0 0 Z " fill="#636971" transform="translate(290,183)"/>
<path d="M0 0 C0.66 0.33 1.32 0.66 2 1 C1.071875 1.9590625 1.071875 1.9590625 0.125 2.9375 C-2.56594788 6.81563076 -3.23906545 10.40435579 -4 15 C-4.33 15 -4.66 15 -5 15 C-5.76681614 6.22421525 -5.76681614 6.22421525 -3.88671875 3.22265625 C-2.5 1.875 -2.5 1.875 0 0 Z " fill="#525961" transform="translate(200,159)"/>
<path d="M0 0 C-1.25358555 3.76075665 -2.70673887 4.47649131 -5.9375 6.6875 C-6.83339844 7.31011719 -7.72929687 7.93273437 -8.65234375 8.57421875 C-11 10 -11 10 -13 10 C-11.74641445 6.23924335 -10.29326113 5.52350869 -7.0625 3.3125 C-6.16660156 2.68988281 -5.27070313 2.06726563 -4.34765625 1.42578125 C-2 0 -2 0 0 0 Z " fill="#676F78" transform="translate(383,294)"/>
<path d="M0 0 C0.66 0 1.32 0 2 0 C1.62671065 5.35048061 0.0042343 7.50912907 -4 11 C-4 7.80389448 -3.45328458 6.58282374 -2 3.8125 C-1.62875 3.09707031 -1.2575 2.38164062 -0.875 1.64453125 C-0.441875 0.83048828 -0.441875 0.83048828 0 0 Z " fill="#5B636D" transform="translate(203,150)"/>
<path d="M0 0 C1.65 0.33 3.3 0.66 5 1 C4.67 2.32 4.34 3.64 4 5 C2.35 4.67 0.7 4.34 -1 4 C-0.67 2.68 -0.34 1.36 0 0 Z " fill="#788391" transform="translate(206,86)"/>
<path d="M0 0 C2.1640625 0.2421875 2.1640625 0.2421875 4.625 0.875 C5.44226563 1.07867187 6.25953125 1.28234375 7.1015625 1.4921875 C8.04128906 1.74355469 8.04128906 1.74355469 9 2 C8.67 2.99 8.34 3.98 8 5 C4.7 4.01 1.4 3.02 -2 2 C-1.34 1.34 -0.68 0.68 0 0 Z " fill="#656B73" transform="translate(310,204)"/>
<path d="M0 0 C0.66 0 1.32 0 2 0 C1.5359375 0.7425 1.5359375 0.7425 1.0625 1.5 C-0.41644382 4.97986781 -0.62402851 8.24028509 -1 12 C-2.73745313 9.34271875 -3.00831972 8.10399645 -2.75 4.875 C-2 2 -2 2 0 0 Z " fill="#6B737F" transform="translate(161,450)"/>
<path d="M0 0 C2.30143236 3.45214853 2.13833854 4.23479324 1.625 8.1875 C1.51414063 9.08855469 1.40328125 9.98960937 1.2890625 10.91796875 C1.19367188 11.60503906 1.09828125 12.29210937 1 13 C-0.9078584 9.8250906 -1.1609041 7.89414789 -0.625 4.25 C-0.51414063 3.45078125 -0.40328125 2.6515625 -0.2890625 1.828125 C-0.19367188 1.22484375 -0.09828125 0.6215625 0 0 Z " fill="#858A91" transform="translate(229,230)"/>
<path d="M0 0 C2.31 0.66 4.62 1.32 7 2 C7 2.99 7 3.98 7 5 C1.25 3.25 1.25 3.25 -1 1 C-0.67 0.67 -0.34 0.34 0 0 Z " fill="#6B727B" transform="translate(180,160)"/>
<path d="M0 0 C0.66 0 1.32 0 2 0 C2.33 2.64 2.66 5.28 3 8 C2.34 8 1.68 8 1 8 C-0.35439668 5.29120665 -0.06501451 2.99066732 0 0 Z " fill="#636972" transform="translate(228,267)"/>
<path d="M0 0 C2.475 0.99 2.475 0.99 5 2 C5 3.98 5 5.96 5 8 C4.34 7.34 3.68 6.68 3 6 C3 5.01 3 4.02 3 3 C1.68 2.34 0.36 1.68 -1 1 C-0.67 0.67 -0.34 0.34 0 0 Z " fill="#757C86" transform="translate(182,119)"/>
<path d="M0 0 C3 1 3 1 4.75 3.9375 C5.1625 4.948125 5.575 5.95875 6 7 C5.67 7.66 5.34 8.32 5 9 C4.16094435 7.87926138 3.32892169 6.75325453 2.5 5.625 C2.0359375 4.99851562 1.571875 4.37203125 1.09375 3.7265625 C0 2 0 2 0 0 Z " fill="#666F7A" transform="translate(397,321)"/>
<path d="M0 0 C0.99 0.495 0.99 0.495 2 1 C2.4140625 3.06640625 2.4140625 3.06640625 2.625 5.5625 C2.69976562 6.38878906 2.77453125 7.21507812 2.8515625 8.06640625 C2.92503906 9.02353516 2.92503906 9.02353516 3 10 C-0.00617269 6.99382731 0.40414684 4.17618402 0 0 Z " fill="#626972" transform="translate(291,142)"/>
<path d="M0 0 C2.5654594 2.5654594 2.54046087 4.47686668 3 8 C2.01 8.495 2.01 8.495 1 9 C0.63877119 7.68942607 0.28619689 6.37646376 -0.0625 5.0625 C-0.35833984 3.96615234 -0.35833984 3.96615234 -0.66015625 2.84765625 C-0.77230469 2.23792969 -0.88445312 1.62820313 -1 1 C-0.67 0.67 -0.34 0.34 0 0 Z " fill="#6A737F" transform="translate(399,336)"/>
<path d="M0 0 C0.99 0 1.98 0 3 0 C2.67 3.3 2.34 6.6 2 10 C1.67 10 1.34 10 1 10 C0.67 6.7 0.34 3.4 0 0 Z " fill="#656E79" transform="translate(416,325)"/>
<path d="M0 0 C0 0.33 0 0.66 0 1 C-6.0546875 1.9765625 -6.0546875 1.9765625 -8 2 C-8.66 1.34 -9.32 0.68 -10 0 C-6.42355152 -1.2380014 -3.66305234 -0.74926071 0 0 Z " fill="#83888F" transform="translate(246,274)"/>
<path d="M0 0 C2.33944736 0.28730055 4.6739143 0.61936779 7 1 C7 1.66 7 2.32 7 3 C4.125 3.125 4.125 3.125 1 3 C0.34 2.34 -0.32 1.68 -1 1 C-0.67 0.67 -0.34 0.34 0 0 Z " fill="#5A606B" transform="translate(225,209)"/>
</svg>
