<?xml version="1.0" encoding="UTF-8"?>
<svg version="1.1" xmlns="http://www.w3.org/2000/svg" width="512" height="512">
<path d="M0 0 C1.01790619 0.00215515 2.03581238 0.0043103 3.08456421 0.00653076 C17.69363523 0.05620146 32.02575853 0.30709809 46.375 3.3125 C47.34985352 3.51117676 48.32470703 3.70985352 49.32910156 3.91455078 C97.7109774 14.03517194 141.69928269 35.9516877 177.375 70.3125 C178.3640332 71.26068604 178.3640332 71.26068604 179.37304688 72.22802734 C188.86130305 81.37247479 197.6012044 90.66984009 205.375 101.3125 C206.23306152 102.46355017 207.09113451 103.61459177 207.94921875 104.765625 C213.98736829 112.95680614 219.34595521 121.47054105 224.375 130.3125 C224.73948242 130.94430176 225.10396484 131.57610352 225.47949219 132.22705078 C247.08534998 169.97532572 256.85198095 212.74189997 256.6875 255.9375 C256.68534485 256.95540619 256.6831897 257.97331238 256.68096924 259.02206421 C256.63129854 273.63113523 256.38040191 287.96325853 253.375 302.3125 C253.07698486 303.77478027 253.07698486 303.77478027 252.77294922 305.26660156 C242.65232806 353.6484774 220.7358123 397.63678269 186.375 433.3125 C185.74287598 433.97185547 185.11075195 434.63121094 184.45947266 435.31054688 C175.31502521 444.79880305 166.01765991 453.5387044 155.375 461.3125 C154.22394983 462.17056152 153.07290823 463.02863451 151.921875 463.88671875 C143.73224019 469.92427396 135.22961724 475.30707302 126.375 480.3125 C125.66778809 480.7146875 124.96057617 481.116875 124.23193359 481.53125 C101.09654164 494.5566741 75.92537591 503.30551461 49.9375 508.625 C49.21860596 508.77235596 48.49971191 508.91971191 47.7590332 509.0715332 C33.08339502 511.86090125 18.55831162 512.66142619 3.64770508 512.62817383 C0.70811513 512.6250221 -2.2304558 512.64854926 -5.16992188 512.67382812 C-18.54306192 512.71848737 -31.43916711 511.51301542 -44.625 509.3125 C-46.33055054 509.03031616 -46.33055054 509.03031616 -48.07055664 508.74243164 C-91.33802759 500.97044532 -132.38793216 480.98345309 -165.625 452.3125 C-166.37007813 451.67828125 -167.11515625 451.0440625 -167.8828125 450.390625 C-181.38779833 438.57948485 -194.05918743 425.82889772 -204.625 411.3125 C-205.48149066 410.16255169 -206.33826433 409.01281411 -207.1953125 407.86328125 C-213.23534209 399.67315742 -218.61867614 391.16870382 -223.625 382.3125 C-224.0271875 381.60528809 -224.429375 380.89807617 -224.84375 380.16943359 C-237.8691741 357.03404164 -246.61801461 331.86287591 -251.9375 305.875 C-252.08485596 305.15610596 -252.23221191 304.43721191 -252.3840332 303.6965332 C-255.35789088 288.05024391 -255.99800362 272.57681954 -255.9375 256.6875 C-255.93534485 255.66959381 -255.9331897 254.65168762 -255.93096924 253.60293579 C-255.88129854 238.99386477 -255.63040191 224.66174147 -252.625 210.3125 C-252.42632324 209.33764648 -252.22764648 208.36279297 -252.02294922 207.35839844 C-241.90232806 158.9765226 -219.9858123 114.98821731 -185.625 79.3125 C-184.99287598 78.65314453 -184.36075195 77.99378906 -183.70947266 77.31445312 C-174.56502521 67.82619695 -165.26765991 59.0862956 -154.625 51.3125 C-153.47394983 50.45443848 -152.32290823 49.59636549 -151.171875 48.73828125 C-142.98224019 42.70072604 -134.47961724 37.31792698 -125.625 32.3125 C-124.91778809 31.9103125 -124.21057617 31.508125 -123.48193359 31.09375 C-100.34654164 18.0683259 -75.17537591 9.31948539 -49.1875 4 C-48.46860596 3.85264404 -47.74971191 3.70528809 -47.0090332 3.5534668 C-31.36274391 0.57960912 -15.88931954 -0.06050362 0 0 Z " fill="#D3D824" transform="translate(255.625,-0.3125)"/>
<path d="M0 0 C3.63648189 1.42297117 4.12052515 2.6975423 5.875 6.125 C6.52728227 8.04038818 7.10364307 9.98241152 7.625 11.9375 C8.13160156 13.78794922 8.13160156 13.78794922 8.6484375 15.67578125 C8.93412598 16.72306396 8.93412598 16.72306396 9.22558594 17.79150391 C10.22867974 21.39585376 11.29279575 24.98187355 12.3503418 28.57055664 C15.08590704 37.85811613 17.75227193 47.16251564 20.3125 56.5 C20.57144043 57.43908203 20.83038086 58.37816406 21.09716797 59.34570312 C21.44932373 60.64024414 21.44932373 60.64024414 21.80859375 61.9609375 C22.1188147 63.09861572 22.1188147 63.09861572 22.43530273 64.25927734 C22.875 66.125 22.875 66.125 22.875 68.125 C31.455 68.125 40.035 68.125 48.875 68.125 C47.885 65.485 46.895 62.845 45.875 60.125 C43.31945942 51.17583855 43.5350075 41.87673811 43.55932617 32.65185547 C43.56252874 30.10212035 43.53880186 27.55350214 43.51367188 25.00390625 C43.51140246 23.37760562 43.51069372 21.75130189 43.51171875 20.125 C43.502509 19.36566162 43.49329926 18.60632324 43.48381042 17.82397461 C43.50941443 14.92585738 43.55038366 12.6783202 45.03759766 10.14331055 C47.64897111 8.69605587 49.66082117 8.78671301 52.63671875 8.83203125 C53.75498047 8.84169922 54.87324219 8.85136719 56.02539062 8.86132812 C57.77625977 8.8990332 57.77625977 8.8990332 59.5625 8.9375 C60.74134766 8.95103516 61.92019531 8.96457031 63.13476562 8.97851562 C66.04837133 9.01390355 68.96174264 9.06771089 71.875 9.125 C71.875 13.415 71.875 17.705 71.875 22.125 C66.925 22.125 61.975 22.125 56.875 22.125 C57.07959734 46.36048492 59.05042676 66.48358638 76.50390625 84.87890625 C91.06973556 98.67684999 107.80217106 102.7812158 127.22265625 102.43359375 C133.9609918 102.16619068 139.7199427 100.90844448 145.875 98.125 C146.94621094 97.650625 148.01742188 97.17625 149.12109375 96.6875 C165.39654034 88.71272287 176.90113897 75.2858667 182.875 58.125 C184.96126893 50.31701977 185.28474135 42.54529199 185.5 34.5 C185.53867187 33.30503906 185.57734375 32.11007813 185.6171875 30.87890625 C185.71055519 27.9611658 185.79382285 25.04310506 185.875 22.125 C180.925 22.125 175.975 22.125 170.875 22.125 C170.875 17.835 170.875 13.545 170.875 9.125 C174.97955765 9.04428401 179.08253836 8.98463187 183.1875 8.9375 C184.35474609 8.91236328 185.52199219 8.88722656 186.72460938 8.86132812 C187.84287109 8.85166016 188.96113281 8.84199219 190.11328125 8.83203125 C191.14493408 8.8163208 192.17658691 8.80061035 193.23950195 8.78442383 C195.875 9.125 195.875 9.125 197.71240234 10.1706543 C199.51371588 13.19869186 199.28231069 16.26644393 199.23828125 19.6875 C199.23877975 20.43402832 199.23927826 21.18055664 199.23979187 21.94970703 C199.23745091 23.53339287 199.22772098 25.11708239 199.21118164 26.70068359 C199.18785588 29.08856798 199.19058703 31.47531391 199.19726562 33.86328125 C199.17791421 45.10976283 198.27597041 55.54195837 194.1875 66.125 C193.92622314 66.80578613 193.66494629 67.48657227 193.39575195 68.18798828 C189.19822454 78.71346518 182.78427526 87.08144163 174.875 95.125 C174.18792969 95.82496094 173.50085938 96.52492188 172.79296875 97.24609375 C161.00538323 108.46507589 145.18025452 116.125 128.875 116.125 C128.875 137.905 128.875 159.685 128.875 182.125 C144.8210725 181.96678117 144.8210725 181.96678117 160.76660156 181.76464844 C162.76626738 181.75296556 164.76594269 181.74277279 166.765625 181.734375 C167.80315918 181.71391113 168.84069336 181.69344727 169.90966797 181.67236328 C177.22469264 181.66880712 177.22469264 181.66880712 180.53808594 183.99316406 C182.22979026 186.69074664 182.50036616 187.99816918 181.875 191.125 C180.50500488 193.24890137 180.50500488 193.24890137 177.875 195.125 C174.35470952 195.73784205 170.8604282 195.67095774 167.29492188 195.64257812 C166.21811661 195.6495874 165.14131134 195.65659668 164.03187561 195.66381836 C160.46890553 195.68143792 156.9067283 195.66976087 153.34375 195.65625 C150.87040046 195.65894376 148.39705196 195.6628252 145.92370605 195.66784668 C140.73858565 195.67374713 135.55374075 195.66516077 130.36865234 195.64648438 C123.71683044 195.62369476 117.06592312 195.63681468 110.41408539 195.66077423 C105.30632652 195.67521714 100.1987211 195.67063303 95.09095764 195.66026306 C92.63810653 195.65759163 90.18524155 195.66088008 87.73240662 195.67018127 C84.30625416 195.68032158 80.88115219 195.66487956 77.45507812 195.64257812 C76.43781143 195.65067505 75.42054474 195.65877197 74.37245178 195.66711426 C67.55352951 195.58473925 67.55352951 195.58473925 64.20983887 193.31921387 C62.875 191.125 62.875 191.125 62.9375 187.5 C63.875 184.125 63.875 184.125 66.875 182.125 C69.09599304 181.88449097 69.09599304 181.88449097 71.71362305 181.89794922 C72.70809448 181.89819092 73.70256592 181.89843262 74.72717285 181.89868164 C76.29114807 181.91402954 76.29114807 181.91402954 77.88671875 181.9296875 C79.32706482 181.93270874 79.32706482 181.93270874 80.79650879 181.93579102 C84.38522108 181.9462591 87.97386531 181.97418166 91.5625 182 C103.5971875 182.061875 103.5971875 182.061875 115.875 182.125 C115.545 160.675 115.215 139.225 114.875 117.125 C111.905 116.795 108.935 116.465 105.875 116.125 C87.72282698 111.40844159 73.35079995 102.06600616 60.875 88.125 C60.35921387 87.09656982 59.84342773 86.06813965 59.31201172 85.00854492 C57.26643704 82.04097592 57.26643704 82.04097592 54.95533752 81.58720398 C52.49254147 81.39933289 50.09033606 81.39928355 47.62109375 81.4609375 C46.72383072 81.45671783 45.82656769 81.45249817 44.90211487 81.44815063 C42.03806837 81.43728127 39.17633208 81.46538304 36.3125 81.5 C33.44541158 81.52402253 30.57935666 81.53925269 27.71217346 81.53042603 C25.92918403 81.52583836 24.14601791 81.54065216 22.36338806 81.57675171 C16.37725945 81.57413942 16.37725945 81.57413942 13.89208984 79.35180664 C12.94025253 77.26786326 12.1164092 75.29815032 11.48046875 73.09765625 C11.2498877 72.31487305 11.01930664 71.53208984 10.78173828 70.72558594 C10.54438965 69.88801758 10.30704102 69.05044922 10.0625 68.1875 C9.80968262 67.3202832 9.55686523 66.45306641 9.29638672 65.55957031 C8.48023624 62.7505644 7.67691189 59.93810121 6.875 57.125 C6.30107813 55.12882087 5.72685867 53.13272728 5.15234375 51.13671875 C3.71614854 46.13574905 2.29136627 41.13161945 0.875 36.125 C-0.94782172 40.24514469 -1.93470623 44.40570384 -2.82421875 48.80078125 C-2.97986298 49.54993301 -3.1355072 50.29908478 -3.29586792 51.07093811 C-3.63059228 52.68391456 -3.96331105 54.29730826 -4.29421997 55.91107178 C-5.17871384 60.22266041 -6.07869566 64.53102391 -6.9765625 68.83984375 C-7.24869316 70.14873566 -7.24869316 70.14873566 -7.52632141 71.48406982 C-9.46463211 80.7920858 -11.49051311 90.07982417 -13.54077148 99.36376953 C-14.89591904 105.50126654 -16.24001275 111.63977048 -17.53526306 117.79016113 C-18.15948657 120.75188926 -18.79035418 123.7121861 -19.42160034 126.67242432 C-19.72040931 128.08282194 -20.01600003 129.49390579 -20.30813599 130.90570068 C-20.71269992 132.85945417 -21.12953695 134.81065401 -21.546875 136.76171875 C-21.89637207 138.42787231 -21.89637207 138.42787231 -22.25292969 140.12768555 C-23.15682893 143.23439636 -24.22342425 145.51194833 -26.125 148.125 C-29 149.25 -29 149.25 -32.125 149.125 C-36.96007985 145.30068568 -38.4819537 141.37185418 -40.1875 135.6875 C-40.44225098 134.88183594 -40.69700195 134.07617188 -40.95947266 133.24609375 C-42.71590244 127.63975676 -44.34100327 121.99626175 -45.9140625 116.3359375 C-48.77881735 106.20754192 -52.00900641 96.1782748 -55.125 86.125 C-56.37635742 86.11041748 -57.62771484 86.09583496 -58.91699219 86.08081055 C-63.56148803 86.02282073 -68.20549939 85.9455877 -72.84960938 85.86254883 C-74.85929499 85.82930274 -76.86907391 85.80126981 -78.87890625 85.77856445 C-81.76863347 85.74501278 -84.65750593 85.69269663 -87.546875 85.63671875 C-88.44492859 85.63032883 -89.34298218 85.6239389 -90.26824951 85.61735535 C-93.71364027 85.53622153 -96.41379464 85.44518409 -99.57617188 84.02148438 C-101.79785513 81.30111307 -102.51757471 78.63911461 -103.484375 75.26953125 C-103.67847961 74.60789474 -103.87258423 73.94625824 -104.0725708 73.26457214 C-104.68689178 71.15918793 -105.28113273 69.0487342 -105.875 66.9375 C-106.28905108 65.50547894 -106.70440141 64.07383286 -107.12109375 62.64257812 C-108.13748454 59.1409374 -109.13595181 55.63447479 -110.125 52.125 C-110.32134033 53.14859619 -110.51768066 54.17219238 -110.7199707 55.22680664 C-111.45564927 59.05080756 -112.20176352 62.87271203 -112.95092773 66.6940918 C-113.27275675 68.34328385 -113.59181318 69.99301961 -113.90795898 71.64331055 C-114.36481494 74.02543666 -114.83185091 76.40538128 -115.30078125 78.78515625 C-115.43841385 79.51460953 -115.57604645 80.24406281 -115.71784973 80.99562073 C-117.8960553 91.8960553 -117.8960553 91.8960553 -121.125 95.125 C-123.68349435 95.2507339 -126.21354586 95.31363887 -128.7734375 95.328125 C-129.92593491 95.33667511 -129.92593491 95.33667511 -131.10171509 95.34539795 C-132.73088193 95.3548618 -134.36006803 95.36138741 -135.98925781 95.36523438 C-138.48276203 95.37493295 -140.97543971 95.40593911 -143.46875 95.4375 C-145.04947426 95.44403051 -146.63020443 95.44928079 -148.2109375 95.453125 C-148.95789886 95.4654718 -149.70486023 95.4778186 -150.47445679 95.49053955 C-155.61969134 95.46839417 -155.61969134 95.46839417 -158.09228516 93.78808594 C-159.74980484 91.1188131 -159.56223771 89.18566397 -159.125 86.125 C-157.00572318 83.3603467 -155.85279097 82.24522124 -152.37597656 81.67089844 C-151.34956055 81.6918457 -150.32314453 81.71279297 -149.265625 81.734375 C-148.15058594 81.74726563 -147.03554687 81.76015625 -145.88671875 81.7734375 C-144.72785156 81.80695313 -143.56898438 81.84046875 -142.375 81.875 C-140.61349609 81.90207031 -140.61349609 81.90207031 -138.81640625 81.9296875 C-135.9184466 81.9768088 -133.02213582 82.04258695 -130.125 82.125 C-130.00511719 81.21105469 -129.88523437 80.29710937 -129.76171875 79.35546875 C-128.30805217 69.21531988 -126.12092961 59.16869554 -124.125 49.125 C-123.74239014 47.19430664 -123.74239014 47.19430664 -123.35205078 45.22460938 C-122.58537843 41.37530077 -121.79412837 37.5312412 -121 33.6875 C-120.63805542 31.87536011 -120.63805542 31.87536011 -120.26879883 30.02661133 C-120.03314209 28.90536865 -119.79748535 27.78412598 -119.5546875 26.62890625 C-119.35085449 25.63705322 -119.14702148 24.6452002 -118.93701172 23.62329102 C-118.06619163 20.94406613 -117.39507312 19.76820096 -115.125 18.125 C-108.98185889 17.46680631 -108.98185889 17.46680631 -106.50785828 19.36720276 C-104.8970449 21.41476133 -104.25456278 23.13320403 -103.49926758 25.62475586 C-103.21920364 26.53257309 -102.93913971 27.44039032 -102.65058899 28.37571716 C-102.35983994 29.35387894 -102.06909088 30.33204071 -101.76953125 31.33984375 C-101.46303146 32.34713028 -101.15653168 33.35441681 -100.84074402 34.39222717 C-100.19501895 36.52174602 -99.55396401 38.65268575 -98.91723633 40.78491211 C-97.94134024 44.04965294 -96.9494355 47.3091999 -95.95507812 50.56835938 C-95.32977367 52.63773235 -94.70539351 54.70738489 -94.08203125 56.77734375 C-93.63679863 58.24155006 -93.63679863 58.24155006 -93.18257141 59.7353363 C-92.91196396 60.64630569 -92.64135651 61.55727509 -92.36254883 62.49584961 C-92.12288895 63.29510361 -91.88322906 64.0943576 -91.63630676 64.91783142 C-91.125 67.125 -91.125 67.125 -91.125 71.125 C-89.25581909 71.0935791 -89.25581909 71.0935791 -87.34887695 71.06152344 C-82.71780933 70.98902649 -78.0867917 70.94316487 -73.45532227 70.90527344 C-71.45230672 70.88518009 -69.44934968 70.85790035 -67.4465332 70.82324219 C-64.56446892 70.77462389 -61.68318134 70.75200848 -58.80078125 70.734375 C-57.90788895 70.71372986 -57.01499664 70.69308472 -56.095047 70.67181396 C-51.95720679 70.67032658 -49.7117531 70.76967655 -46.10375977 72.95458984 C-43.50046976 75.81001836 -42.77884019 78.27915689 -41.75 82 C-41.34400209 83.41450951 -40.93634894 84.82854461 -40.52734375 86.2421875 C-40.30933105 87.01272461 -40.09131836 87.78326172 -39.86669922 88.57714844 C-38.44623065 93.45667774 -36.86626295 98.28663075 -35.3125 103.125 C-34.70142481 105.04153978 -34.09071512 106.95819616 -33.48046875 108.875 C-33.0287053 110.29168563 -32.57690659 111.70836002 -32.125 113.125 C-29.64668139 105.49000536 -27.93579222 97.80537516 -26.375 89.9375 C-25.84871348 87.33802878 -25.3208598 84.73896585 -24.7890625 82.140625 C-24.6531369 81.47623917 -24.5172113 80.81185333 -24.37716675 80.12733459 C-22.67381924 71.85776834 -20.77674101 63.63221535 -18.87646484 55.40600586 C-17.16206565 47.92204811 -15.56717611 40.42669827 -14.078125 32.89453125 C-13.72865324 31.15024904 -13.37888221 29.40602676 -13.02880859 27.66186523 C-12.51464704 25.09952338 -12.00697397 22.53683522 -11.52081299 19.96902466 C-11.06978038 17.58766552 -10.5956688 15.21190994 -10.1171875 12.8359375 C-9.99023499 12.12899246 -9.86328247 11.42204742 -9.73248291 10.69367981 C-8.563175 5.0663962 -6.20555671 0.24822227 0 0 Z " fill="#030300" transform="translate(236.125,213.875)"/>
<path d="M0 0 C7.83811842 5.90892209 12.66920851 13.86442076 16 23 C16.18359375 26.42578125 16.18359375 26.42578125 16 29 C15.01604248 29.029729 15.01604248 29.029729 14.01220703 29.06005859 C11.04938931 29.15512507 8.08729468 29.26487752 5.125 29.375 C3.57619141 29.42140625 3.57619141 29.42140625 1.99609375 29.46875 C0.51689453 29.52675781 0.51689453 29.52675781 -0.9921875 29.5859375 C-1.90339355 29.6173584 -2.81459961 29.6487793 -3.75341797 29.68115234 C-6.19931186 29.79882511 -6.19931186 29.79882511 -8 32 C-7.505 34.97 -7.505 34.97 -7 38 C0.92 38.33 8.84 38.66 17 39 C17 42.96 17 46.92 17 51 C4.625 51.495 4.625 51.495 -8 52 C-8.4472136 57.47825081 -8.4472136 57.47825081 -7 60 C0.92 60.33 8.84 60.66 17 61 C17 64.96 17 68.92 17 73 C9.08 73.33 1.16 73.66 -7 74 C-8.51465024 79.46084261 -8.51465024 79.46084261 -7 82 C0.92 82.33 8.84 82.66 17 83 C17 86.96 17 90.92 17 95 C15.27910156 95.06058594 13.55820312 95.12117188 11.78515625 95.18359375 C9.5442614 95.26797891 7.30337647 95.35262791 5.0625 95.4375 C3.92619141 95.47681641 2.78988281 95.51613281 1.61914062 95.55664062 C0.53955078 95.59853516 -0.54003906 95.64042969 -1.65234375 95.68359375 C-2.65257568 95.72025146 -3.65280762 95.75690918 -4.68334961 95.79467773 C-6.96069188 95.74671841 -6.96069188 95.74671841 -8 97 C-8 99.31 -8 101.62 -8 104 C-0.08 104.33 7.84 104.66 16 105 C14.47091789 115.70357474 9.87211003 126.33247489 1 133 C-8.53854847 139.87168157 -19.17952093 143.49011705 -31 142 C-43.53949992 138.92591207 -54.28030969 131.22857834 -61.1015625 120.22265625 C-63.87832873 115.17853055 -64.5146453 110.69584762 -65 105 C-64.01604248 104.970271 -64.01604248 104.970271 -63.01220703 104.93994141 C-60.04938931 104.84487493 -57.08729468 104.73512248 -54.125 104.625 C-53.09246094 104.5940625 -52.05992187 104.563125 -50.99609375 104.53125 C-50.00996094 104.49257813 -49.02382813 104.45390625 -48.0078125 104.4140625 C-47.09660645 104.3826416 -46.18540039 104.3512207 -45.24658203 104.31884766 C-42.80068814 104.20117489 -42.80068814 104.20117489 -41 102 C-41.33 100.02 -41.66 98.04 -42 96 C-49.92 95.67 -57.84 95.34 -66 95 C-66 91.04 -66 87.08 -66 83 C-64.36289062 82.95101562 -62.72578125 82.90203125 -61.0390625 82.8515625 C-58.901024 82.77654361 -56.76300402 82.7009954 -54.625 82.625 C-53.54476563 82.5940625 -52.46453125 82.563125 -51.3515625 82.53125 C-50.3203125 82.49257812 -49.2890625 82.45390625 -48.2265625 82.4140625 C-47.27346191 82.3826416 -46.32036133 82.3512207 -45.33837891 82.31884766 C-42.81104824 82.21444204 -42.81104824 82.21444204 -41 80 C-41.33 78.02 -41.66 76.04 -42 74 C-49.92 73.67 -57.84 73.34 -66 73 C-66 69.37 -66 65.74 -66 62 C-64.36289062 61.96261719 -62.72578125 61.92523438 -61.0390625 61.88671875 C-58.90101806 61.82107703 -56.76299826 61.75462909 -54.625 61.6875 C-53.54476563 61.66494141 -52.46453125 61.64238281 -51.3515625 61.61914062 C-50.3203125 61.58369141 -49.2890625 61.54824219 -48.2265625 61.51171875 C-46.79691162 61.47244263 -46.79691162 61.47244263 -45.33837891 61.43237305 C-44.56671387 61.28968994 -43.79504883 61.14700684 -43 61 C-42.34 60.01 -41.68 59.02 -41 58 C-41.33 56.35 -41.66 54.7 -42 53 C-49.92 52.67 -57.84 52.34 -66 52 C-66 48.04 -66 44.08 -66 40 C-64.36289062 39.95101562 -62.72578125 39.90203125 -61.0390625 39.8515625 C-58.901024 39.77654361 -56.76300402 39.7009954 -54.625 39.625 C-53.54476563 39.5940625 -52.46453125 39.563125 -51.3515625 39.53125 C-50.3203125 39.49257812 -49.2890625 39.45390625 -48.2265625 39.4140625 C-47.27346191 39.3826416 -46.32036133 39.3512207 -45.33837891 39.31884766 C-42.81104824 39.21444204 -42.81104824 39.21444204 -41 37 C-41.33 35.02 -41.66 33.04 -42 31 C-49.92 30.67 -57.84 30.34 -66 30 C-63.26321843 16.31609214 -58.38761459 6.58779971 -46.7734375 -1.5625 C-30.95432422 -10.9533517 -15.40354922 -9.40876423 0 0 Z " fill="#020200" transform="translate(382,161)"/>
<path d="M0 0 C2.9375 0.4375 2.9375 0.4375 4.59399414 1.59985352 C7.52566997 5.6097979 6.40326061 11.60409463 6.375 16.375 C6.39498047 17.56802734 6.41496094 18.76105469 6.43554688 19.99023438 C6.43490234 21.13685547 6.43425781 22.28347656 6.43359375 23.46484375 C6.43544678 24.51406006 6.4372998 25.56327637 6.43920898 26.64428711 C5.81170591 30.1378456 4.76771692 31.34560053 1.9375 33.4375 C-1.6875 33.375 -1.6875 33.375 -5.0625 32.4375 C-8.23640613 27.67664081 -7.43122065 22.59804275 -7.4375 17 C-7.46199219 15.85466797 -7.48648437 14.70933594 -7.51171875 13.52929688 C-7.51558594 12.42779297 -7.51945312 11.32628906 -7.5234375 10.19140625 C-7.53165527 9.18408447 -7.53987305 8.1767627 -7.54833984 7.13891602 C-6.73199152 2.59977323 -4.49414422 0.6420206 0 0 Z " fill="#050500" transform="translate(358.0625,104.5625)"/>
<path d="M0 0 C4.51868029 1.73866137 7.70892851 5.51688071 11.03930664 8.90966797 C12.22073242 10.03115234 12.22073242 10.03115234 13.42602539 11.17529297 C18.98988449 16.74886212 18.98988449 16.74886212 19.22680664 21.71435547 C18.03930664 24.78466797 18.03930664 24.78466797 15.03930664 26.78466797 C11.485659 27.22521514 9.70720265 27.23489333 6.70581055 25.21166992 C5.98312988 24.48939209 5.26044922 23.76711426 4.51586914 23.02294922 C3.7230957 22.23339844 2.93032227 21.44384766 2.11352539 20.63037109 C1.3052832 19.79441406 0.49704102 18.95845703 -0.33569336 18.09716797 C-1.16713867 17.28054687 -1.99858398 16.46392578 -2.85522461 15.62255859 C-8.86738976 9.52647981 -8.86738976 9.52647981 -9.29125977 6.15649414 C-8.96069336 3.78466797 -8.96069336 3.78466797 -7.39819336 1.40966797 C-4.66341415 -0.41351817 -3.20881747 -0.55692643 0 0 Z " fill="#060601" transform="translate(302.960693359375,129.21533203125)"/>
<path d="M0 0 C3.0703125 0.578125 3.0703125 0.578125 5.0703125 1.640625 C6.32631614 4.07413206 6.22484365 5.9212166 5.79248047 8.5925293 C4.28490383 12.73760055 0.78896367 15.50388679 -2.3671875 18.453125 C-3.06134766 19.12859375 -3.75550781 19.8040625 -4.47070312 20.5 C-10.65437777 26.46218775 -10.65437777 26.46218775 -15.3671875 26.890625 C-18.9296875 26.578125 -18.9296875 26.578125 -20.9296875 24.890625 C-22.21427365 21.92001953 -21.85269112 20.65432568 -20.9296875 17.578125 C-18.5508983 14.33915196 -15.64669985 11.60050855 -12.8046875 8.765625 C-12.05703125 7.97736328 -11.309375 7.18910156 -10.5390625 6.37695312 C-4.92022008 0.72384948 -4.92022008 0.72384948 0 0 Z " fill="#050601" transform="translate(414.9296875,128.421875)"/>
</svg>
