<?xml version="1.0" encoding="UTF-8"?>
<svg version="1.1" xmlns="http://www.w3.org/2000/svg" width="512" height="512">
<path d="M0 0 C2.8260417 1.16246609 4.42172476 2.79965051 6.58202291 4.96314436 C7.47476958 5.84991789 8.36751625 6.73669141 9.28731585 7.65033686 C10.27396477 8.6455452 11.26047441 9.64089164 12.24685979 10.63636118 C13.29737115 11.68556487 14.34854129 12.73410931 15.40031433 13.78204823 C18.29405912 16.66906855 21.1783391 19.5653877 24.06120133 22.46326941 C27.16958284 25.58457876 30.28660073 28.69724201 33.40259099 31.81095225 C38.80187966 37.20866613 44.19563842 42.61185564 49.58570409 48.01877886 C57.37888573 55.836318 65.18031574 63.64558246 72.98379859 71.45283734 C85.64350138 84.11910972 98.29648702 96.79207029 110.94528508 109.46923167 C123.23409224 121.78556626 135.52603918 134.09875322 147.82223821 146.40770823 C148.57988419 147.16614238 149.33753017 147.92457653 150.11813512 148.70599354 C153.91895509 152.51072855 157.71983703 156.31540164 161.52074981 160.12004393 C193.06445567 191.6948615 224.59727679 223.28053223 256.12301946 254.8732844 C254.62326551 258.37119883 252.61485433 260.63468794 249.93690228 263.31946379 C249.0540879 264.20934376 248.17127352 265.09922374 247.26170719 266.01606977 C246.27608824 266.99943734 245.29037184 267.98270724 244.30456853 268.96588999 C243.26169877 270.01321142 242.21926092 271.06096308 241.17721903 272.10910821 C238.30938734 274.99113789 235.43530613 277.86686406 232.560148 280.74158233 C229.46177865 283.84159822 226.36912876 286.94731122 223.27568364 290.05223948 C216.51054628 296.84023471 209.73794429 303.62074966 202.96389747 310.3998521 C198.73704807 314.6299563 194.51183405 318.86169132 190.28697133 323.09377962 C178.59618203 334.80413255 166.9038164 346.51290489 155.20469403 358.21493345 C154.45596488 358.96385018 153.70723572 359.71276691 152.9358178 360.48437808 C151.41788785 362.00267429 149.89995662 363.52096921 148.38202412 365.03926287 C147.62849594 365.79297386 146.87496776 366.54668485 146.09860539 367.32323557 C145.3441601 368.07786141 144.58971481 368.83248725 143.81240754 369.60998055 C131.57423007 381.8517035 119.34784713 394.10513323 107.1265914 406.36374746 C94.58823495 418.94012577 82.04060127 431.50718322 69.48337042 444.06471658 C62.42931084 451.11936196 55.37929643 458.17794771 48.33937764 465.24670702 C42.3480018 471.26251448 36.34819201 477.26974496 30.33704139 483.26579574 C27.26794072 486.32769485 24.203097 489.39356796 21.14890409 492.47034365 C18.35661932 495.28307717 15.55319867 498.0841718 12.74019389 500.876179 C11.72100412 501.89184677 10.7060828 502.91181827 9.69576533 503.936312 C8.32894052 505.32108156 6.94533977 506.68923398 5.56081891 508.05631071 C4.41189253 509.20645878 4.41189253 509.20645878 3.23975551 510.37984216 C1.12301946 511.8732844 1.12301946 511.8732844 -0.98428762 511.75935292 C-4.12844039 510.28741061 -6.34834528 507.79064757 -8.74709773 505.34374338 C-9.61116488 504.48033335 -9.61116488 504.48033335 -10.49268794 503.59948069 C-12.39360831 501.69647148 -14.28368412 499.78305925 -16.17385554 497.86937815 C-17.49027802 496.54736008 -18.80736471 495.22600312 -20.12508845 493.90528208 C-23.59066147 490.42825751 -27.04713093 486.94231782 -30.50179744 483.45446116 C-34.02896882 479.89659581 -37.56465341 476.3472132 -41.09963679 472.79711252 C-48.03378866 465.830791 -54.95835524 458.85502401 -61.87698054 451.8732844 C-57.48689443 446.62142275 -52.86678645 441.72305622 -48.01824641 436.89429575 C-46.85899482 435.73376253 -46.85899482 435.73376253 -45.67632401 434.54978418 C-43.09925519 431.97107492 -40.51864087 429.39594406 -37.9380157 426.82079417 C-36.08472264 424.96778332 -34.23165002 423.11455197 -32.37878108 421.26111704 C-28.39607568 417.27788871 -24.41155159 413.29648729 -20.42576671 409.31634051 C-14.66307842 403.56179851 -8.90317169 397.80447891 -3.14392798 392.04648977 C6.20139878 382.70334862 15.54895392 373.36244024 24.8979218 364.0229426 C33.97657109 354.95348014 43.05416368 345.88296216 52.13034368 336.81102854 C52.6903225 336.25131244 53.25030133 335.69159633 53.82724921 335.11491913 C56.63664803 332.30682541 59.44602615 329.49871099 62.25539398 326.69058627 C85.54139546 303.41494211 108.83101807 280.14292445 132.12301946 256.8732844 C130.76215744 253.8316486 129.23123154 251.73233324 126.87838864 249.38255793 C126.2055946 248.70578178 125.53280055 248.02900564 124.8396188 247.33172113 C124.09838241 246.59631042 123.35714602 245.86089971 122.59344792 245.10320383 C121.80769702 244.31574408 121.02194612 243.52828433 120.21238458 242.71696216 C117.56998034 240.07125544 114.92047585 237.43277499 112.27096868 234.79418284 C110.37864118 232.90241929 108.48671352 231.01026369 106.59527898 229.11760813 C102.51809711 225.03937733 98.43726805 220.96482571 94.35394216 216.89274698 C88.45013851 211.00519428 82.55186225 205.11212967 76.65492238 199.21770319 C67.08748605 189.6546446 57.5155915 180.0960613 47.94089055 170.54027659 C38.63972042 161.25746321 29.34065223 151.97255253 20.04440618 142.68480784 C19.47142847 142.11235558 18.89845077 141.53990332 18.3081101 140.95010403 C15.43367531 138.0782793 12.55928182 135.20641323 9.68490887 132.3345266 C-14.16265339 108.50769929 -38.0174517 84.68812867 -61.87698054 60.8732844 C-60.93512308 59.76618514 -59.99206776 58.6601049 -59.04852176 57.55444437 C-58.52348909 56.93838469 -57.99845643 56.32232501 -57.45751369 55.68759686 C-55.17122942 53.06314444 -52.75140164 50.576703 -50.30227351 48.10570627 C-49.52055781 47.31172434 -49.52055781 47.31172434 -48.72304988 46.50170237 C-47.02471109 44.77886335 -45.32252255 43.05991394 -43.61916804 41.3420344 C-43.03390471 40.75144739 -42.44864139 40.16086039 -41.84564281 39.55237681 C-38.75788111 36.43806159 -35.66657548 33.32730937 -32.57278132 30.21898752 C-30.01495229 27.64773242 -27.46462297 25.06936728 -24.92043757 22.48461252 C-21.83818867 19.35323844 -18.74402384 16.23413767 -15.64068675 13.12366587 C-14.46185047 11.93810017 -13.28728652 10.74827066 -12.11708903 9.55417734 C-10.48713848 7.89280786 -8.84233544 6.24769827 -7.19289851 4.60570627 C-6.711766 4.10816843 -6.2306335 3.61063059 -5.73492122 3.09801584 C-2.41276906 -0.16288687 -2.41276906 -0.16288687 0 0 Z " fill="#D3D825" transform="translate(158.8769805431366,0.12671560049057007)"/>
</svg>
